<?xml version="1.0" encoding="utf-8"?>
<!-- Generator: Adobe Illustrator 23.0.5, SVG Export Plug-In . SVG Version: 6.00 Build 0)  -->
<svg version="1.1" id="Capa_1" xmlns="http://www.w3.org/2000/svg" xmlns:xlink="http://www.w3.org/1999/xlink" x="0px" y="0px"
	 viewBox="0 0 1080 1080" style="enable-background:new 0 0 1080 1080;" xml:space="preserve">
<style type="text/css">
	.st0{display:none;fill:#862633;}
	.st1{fill:#FFFFFF;}
	.st2{fill:#211915;}
	.st3{fill:#57565B;}
	.st4{fill:#61116A;}
	.st5{fill:#98002E;}
	.st6{display:none;}
	.st7{display:inline;fill:#136BAE;}
	.st8{display:inline;fill:#009FBD;}
	.st9{display:inline;fill:#343D4A;}
	.st10{display:inline;}
	.st11{fill-rule:evenodd;clip-rule:evenodd;fill:#343D4A;}
</style>
<path id="Marco" class="st0" d="M1383.7,575H529.9C236.7,575-3.2,814.9-3.2,1108.1l0,853.9c0,293.2,239.9,533.1,533.1,533.1h853.9
	c293.2,0,533.1-239.9,533.1-533.1v-853.9C1916.8,814.9,1676.9,575,1383.7,575z"/>
<g id="Logo_1_">
	<g id="Logo">
		<path class="st1" d="M798.4,2006.2c13.2,35.2,12,83.7,2.1,123c-9.5,37.5-25.3,70.2-42,99.3c-69.3,120.6-178.1,202-286.4,280.1
			c-7.2-9-11.6-19.3-17.9-31c-2.5-4.6-5.8-9.9-8.9-15.8c-2.5-4.5-7.7-11.9-7.9-16.3c-0.3-5.7,8-17.8,11.6-24.2
			c62.6-113.3,126-233,188.6-344.2c14.7-0.9,33-0.9,47.8,0c3,10.7,3.9,22.4,5.3,34.2c2.5,23.3,4.7,47.6,7.3,71.5
			c1.2,11.7,0.4,23.7,5.3,33.6c12.3-2.7,20.1-14.5,27.3-24.2c22.1-29.4,39.7-67,44.7-112.5c7.4-67.7-30.1-110.4-85.1-121.4
			c-32.8-6.6-66-2.1-94.1,4.7c-57.4,13.9-101.4,35.6-146.6,62.5c-16.4,9.7-32.3,19.3-48.3,30.5c-5,3.5-11.2,9.7-15.8,10
			c-4.5,0.3-10.8-3.6-16.3-5.8c-15.5-6-33.7-10.2-55.2-10.5c-29.4-0.4-52.4,7.6-74.1,12.6c3.2-7.5,11.2-11.1,17.3-15.8
			c43.1-32.5,92.5-61.9,145-85.7c61-27.5,127.2-49.7,210.2-53.6C705.6,1903,773.2,1939.7,798.4,2006.2"/>
		<path class="st1" d="M729.5,2507c1.8,19.7,5.3,39.6,3.7,57.3c-4.6,2.5-12.9,1.6-22.1,1.6c-7.7,0-18,1.1-22.1-1.6
			c-3-1.9-7-11.8-9.5-16.8c-17.8-35.4-33.5-67.5-52-102.5c-3.1-5.6-8.4-13.9-7.9-17.9c0.7-5.3,8.7-7.1,11-11
			c27.3-24,52.2-50.4,76.7-77.2c6.1-5.3,6.3,5.4,6.8,10C719.6,2401.9,724.7,2454.3,729.5,2507"/>
		<path class="st1" d="M467.9,2546.9c2.5,4.4,6,9.3,5.8,14.7c-3.9,5.5-14.5,3.7-22.6,3.7c-8.8,0-18.7,1.3-25.7-0.5
			c-4.5-1.1-11.2-7.4-16.3-11.6c-55.4-45.4-110.9-90.6-166.6-135.1c-20.6-16.4-41.5-31.7-60.4-49.4c-1-9.5-0.9-22.5,0-32.1
			c44.7-11.9,79.8-32.3,109.8-60.4c14.2-13.3,26.8-28.6,37.8-47.3c10.2-17.5,21.4-38.5,19.4-65.7c-2.9-39.3-33.8-58.9-75.7-58.9
			c-32.5,0-55.9,11.4-79.9,21c-7.4,3-16.1,9.3-25.2,5.3c2-5.3,7.5-8.8,12.1-12.1c30.5-22.2,72-44.9,120.9-47.8
			c80-4.7,125.6,45.4,132.9,114.6c8.6,81.4-31.5,135.7-81.4,163.4C390.6,2415.5,429.1,2480.8,467.9,2546.9"/>
		<path class="st1" d="M358.6,2544.8c4.9,4,9.6,7.3,12.6,12.1c-33.2,14.4-68.9,24.2-108.3,31c-40.1,6.9-85.7,9.1-127.2,1.6
			c-75.6-13.7-131.4-57.5-138.2-140.3c-3.6-42.8,6.2-84.2,19.4-117.7c13.4-34.2,30.8-62.8,50.4-88.8
			c39.4-52.4,87.1-99.8,169.2-109.3c23.8-2.7,45.1,2.6,59.4,13.7c3.2,2.4,11.6,8.5,11,12.6c-0.5,3.8-13.1,9.4-17.3,12.1
			c-40.8,26.5-80.8,58.2-114,89.9c-29.5,29.1-57.1,58.9-79.3,95.6c-20.4,33.6-43.1,89.6-21,134.5c27.8,56.8,113,70.1,196,57.8
			c17.9-2.6,37.1-5.9,55.2-10.5c6-1.5,12.8-4.6,17.3-4.2C348.7,2535.3,354.6,2541.6,358.6,2544.8"/>
	</g>
	<g id="Tagline">
		<path class="st1" d="M776,2514.2c4.7,0,9.2,1.2,13.6,3.6c4.4,2.4,7.9,5.8,10.4,10.3c2.5,4.5,3.7,9.1,3.7,13.9
			c0,4.8-1.2,9.4-3.7,13.8c-2.4,4.4-5.9,7.8-10.3,10.3c-4.4,2.4-9,3.7-13.8,3.7c-4.8,0-9.4-1.2-13.8-3.7c-4.4-2.4-7.8-5.9-10.3-10.3
			c-2.5-4.4-3.7-9-3.7-13.8c0-4.8,1.2-9.5,3.7-13.9c2.5-4.5,6-7.9,10.4-10.3C766.8,2515.4,771.4,2514.2,776,2514.2 M776,2518.8
			c-3.9,0-7.7,1-11.4,3c-3.7,2-6.6,4.9-8.7,8.6c-2.1,3.7-3.1,7.6-3.1,11.6c0,4,1,7.8,3.1,11.5c2,3.7,4.9,6.5,8.6,8.6
			c3.7,2,7.5,3.1,11.5,3.1c4,0,7.8-1,11.5-3.1c3.7-2,6.5-4.9,8.6-8.6c2-3.7,3.1-7.5,3.1-11.5c0-4-1-7.9-3.1-11.6
			c-2.1-3.7-5-6.6-8.7-8.6C783.7,2519.8,779.9,2518.8,776,2518.8 M763.9,2557.3v-29.9h10.3c3.5,0,6.1,0.3,7.6,0.8
			c1.6,0.6,2.8,1.5,3.8,2.9c0.9,1.4,1.4,2.8,1.4,4.4c0,2.2-0.8,4.1-2.3,5.7c-1.6,1.6-3.6,2.5-6.2,2.7c1.1,0.4,1.9,1,2.5,1.6
			c1.2,1.2,2.7,3.2,4.4,5.9l3.6,5.9h-5.9l-2.6-4.7c-2.1-3.7-3.8-6-5-7c-0.9-0.7-2.2-1-3.9-1h-2.8v12.7H763.9z M768.7,2540.5h5.8
			c2.8,0,4.7-0.4,5.7-1.3c1-0.8,1.5-1.9,1.5-3.3c0-0.9-0.2-1.7-0.7-2.4c-0.5-0.7-1.2-1.2-2-1.6c-0.9-0.3-2.5-0.5-4.8-0.5h-5.5
			V2540.5z"/>
		<path class="st1" d="M1001.5,2223.8c-10.9,0.2-21.9,0.6-32.8,1.3l-1.3-1.1c-7.2-21.7-11.3-34.7-17.3-51.6
			c-3.2,0.2-6.4,0.2-9.6,0.2c-4.1,16.6-7.5,34.1-10.5,50.9l-1.3,0.9c-8.3,0-31.6,0.6-31.6,0.6l-0.9-1.1
			c5.5-22.6,24.7-98.1,29.2-131.3l1.1-0.9c9.2,0,33.7-0.4,48.6-0.4c21.7,0,40.5,7,40.5,33c0,20.7-12.4,37.3-35.6,42.8
			c16.2,40.1,19.4,47.5,22.6,55.4L1001.5,2223.8z M953.1,2150.9c15.6,0,29.4-7,29.4-23.5c0-12.2-9.8-13.8-19.6-13.8
			c-1.1,0-2.8,0.2-8.5,0.2c-0.9,3.8-2.1,7.5-8.9,37.1H953.1z"/>
		<path class="st1" d="M1077.8,2122.4c11.9,0,43.1,4.9,43.1,40.5c0,37.5-20.9,63.9-57.6,63.9c-37.9,0-45-23.5-45-41.1
			C1018.3,2173.3,1023.3,2122.4,1077.8,2122.4 M1063.9,2206.8c20,0,25.8-34.5,25.8-48c0-6.4-1.9-16.4-14.1-16.4
			c-22.6,0-25.8,41.8-25.8,47.7C1049.7,2202.9,1056.7,2206.8,1063.9,2206.8"/>
		<path class="st1" d="M1121.3,2223.4c2.8-11.9,5.5-21.5,7.9-32.4l9-39.2c5.5-23.6,11.1-46.7,14.7-70.6l1.5-1.3
			c10.7-1.7,21.5-3.6,32.2-5.5l0.9,1.3c-1.5,6.8-3.2,13.2-4.9,19.8l-8.9,35.2c3.4-2.3,12.6-8.3,24.9-8.3c24.9,0,31.6,22,31.6,36.9
			c0,18.6-8.7,39.6-23.4,51.4c-16.6,13.4-36.2,13.8-56.1,13.8h-13.2c-5.1,0-10.2,0-15.3,0.2L1121.3,2223.4z M1161.4,2204
			c5.5,0,15.1-0.6,23.4-8.7c7.9-7.7,13.4-21.3,13.4-32.4c0-14.3-7.9-18.3-14.7-18.3c-7,0-11.9,3.8-13.9,5.1l-12.4,54.3H1161.4z"/>
		<path class="st1" d="M1297.8,2122.4c11.9,0,43.1,4.9,43.1,40.5c0,37.5-20.9,63.9-57.6,63.9c-37.9,0-45-23.5-45-41.1
			C1238.3,2173.3,1243.4,2122.4,1297.8,2122.4 M1283.9,2206.8c20,0,25.8-34.5,25.8-48c0-6.4-1.9-16.4-14.1-16.4
			c-22.6,0-25.8,41.8-25.8,47.7C1269.7,2202.9,1276.7,2206.8,1283.9,2206.8"/>
		<path class="st1" d="M1399.5,2224.4c-7.9,1.9-14.7,2.1-17.3,2.1c-21.5,0-28.3-9.2-28.3-22c0-7.2,2.1-16,6.2-32.6l6.4-26h-2.1
			c-4.1,0-7.2,0.2-11.1,0.4l-1.1-1.3c2.1-7,3.4-12.1,5.3-19l1.3-1.1h12.6c2.1-8.9,3.6-15.1,5.3-24.1l1.3-1.3
			c11.5-2.6,19.6-4.7,30.9-8.1l1.1,1.3c-1.5,5.3-2.4,10-8.3,32.8c7.2-0.2,12.2-0.2,19.4-0.6l0.8,1.5c-2.4,6.8-4.1,11.7-5.8,18.8
			l-1.7,1.1c-6.4-0.2-10.9-0.2-17.3-0.2l-7.9,33c-1.9,7.9-3.6,15.1-3.6,17.9c0,3.4,2.1,7.7,9.4,7.7c4.9,0,8.3-1.5,10.4-2.3l1.1,0.9
			c-2.3,7.3-3.6,12.4-5.6,19.6L1399.5,2224.4z"/>
		<path class="st1" d="M1458.5,2176.5l-3,13.9c-2.3,10.9-4.1,21.9-6,33l-1.3,0.9c-10.9,0-21.9,0.2-32.6,0.8l-0.9-1.3
			c4.3-16.6,8.5-33.5,12.2-50.5l2.1-9.2c2.6-11.7,5.1-23.6,6.4-35.2l1.3-1.3c11.1-1.5,22.2-3.2,33.2-5.3l1.1,1.5
			C1466.6,2140.7,1462.3,2158.8,1458.5,2176.5 M1480.3,2079.3c-1.7,8.5-4,16.8-6,25.1l-1.5,1.5c-10.2,1.3-20.3,2.8-30.7,4.3
			l-1.1-1.5c1.9-8.3,3.8-16.8,5.5-25.2l1.7-1.3c10.2-1.3,21.9-3,31.1-4.1L1480.3,2079.3z"/>
		<path class="st1" d="M1543.3,2222.1c-4.9,2.1-12.4,4.7-23.7,4.7c-28.1,0-44.8-17.5-44.8-43.9c0-26.4,14.1-44.3,27.9-52.6
			c13.2-7.9,27.9-7.9,31.5-7.9c8.5,0,20.2,1.9,28.4,7.7l0.4,1.5c-2.6,7.7-4.3,13.4-6.4,21.5l-1.9,0.4c-6.4-9-16.8-9-18.1-9
			c-20.9,0-29.4,21.5-29.4,36c0,12.6,6.4,23.9,21.5,23.9c10,0,15.6-4.1,20.2-7.5l1.7,0.9c-2.4,8.5-3.9,14.5-6,23L1543.3,2222.1z"/>
		<path class="st1" d="M1564.9,2195.2c8.1,9.2,17.9,12.2,26.4,12.2c10,0,16-4.5,16-10.9c0-5.3-3.2-7.5-12.8-12.4l-4.1-2.1
			c-6.8-3.4-19.6-9.6-19.6-25.6c0-16.4,11.7-33.9,43.1-33.9c15.6,0,25.1,4,32,7.5l1,1.7c-2.4,7.3-4,12.6-5.8,20.2l-1.7,0.4
			c-9-10.7-19.4-10.9-22.4-10.9c-9,0-14.9,4-14.9,9.6c0,4.3,3.6,7.2,11.5,10.9l4.3,2.1c7.3,3.6,21.7,10.4,21.7,28.1
			c0,17.9-13.8,35-45.6,35c-17.3,0-28.5-4.7-36-9.4l-0.6-1.7c2.4-7.3,3.8-12.6,5.8-20.2L1564.9,2195.2z"/>
		<path class="st1" d="M1815.1,2174.1c-6.6,8.5-14.7,16.2-23.6,24.7c5.1,8.1,10.2,16.2,15.4,24.3l-0.6,1.7h-10.9
			c-11.3,0-14.9,0-22.4,0.4l-1.5-1.1c-1.3-3-3-5.6-4.7-8.3c-11.5,7.5-22.2,11.3-35,11.3c-22,0-37.1-13.4-37.1-33
			c0-9.2,4-18.7,10.6-25.2c5.3-5.3,10.9-8.7,26.4-16c-5.5-10-7.3-16.8-7.3-25.4c0-19.4,15.1-32.6,37.7-32.6
			c20.9,0,34.5,10.5,34.5,26.9c0,15.1-10,23.9-29.6,35.2c4.3,7.9,8.7,15.6,13.4,23c14.5-15.4,15.5-16.8,21.1-27.1h1.9
			c3.6,6.8,7.9,13.2,12.1,19.8L1815.1,2174.1z M1742.6,2172.9c-12.4,6.6-16.4,11.1-16.4,18.5c0,7.2,5.3,12.4,13,12.4
			c5.3,0,10-1.9,17.1-6.8C1752,2188.9,1747.1,2181,1742.6,2172.9 M1762.9,2112.8c-5.8,0-10.7,4.9-10.7,10.9c0,4.3,1.1,7.5,5.3,15.8
			c11.7-7.3,15.3-11.1,15.3-17.3C1772.7,2116.8,1768.6,2112.8,1762.9,2112.8"/>
		<path class="st1" d="M960.2,2051h-4.9c-5.6,0-9.8,0.2-15.4,0.4l-0.9-1.3c5.8-23.7,25.4-108.7,29.2-130.9l1.1-1.1h5.5
			c5.6,0,9.8,0,15.4-0.4l0.8,1.1c-6.2,24.9-21.1,87.2-29.2,131.3L960.2,2051z"/>
		<path class="st1" d="M1070.4,2051.2h-39.2c-12.6,0-21.3,0-33.9,0.4l-2.6,0.2l-0.9-1.3c12.8-50.1,23.6-103.8,29.4-131.3l1.3-1.3
			h1.7c5.5,0,14.3,0.2,22.6,0.2h21.8c10.4,0,20.7-0.4,27.7-0.4l1.1,1.1c-1.7,5.1-2.6,8.7-4,13.9l-1.5,1.1c-11.5,0-27.3-0.6-43.3-0.6
			c-3.2,0-9.2,0.2-9.2,0.2l-9.2,41.1c37.7-0.2,43.3-0.6,51.4-0.6l0.8,1.3c-1.5,4.9-2.5,8.3-3.8,13.2l-1.7,1.3
			c-6.6-0.2-35.4-0.2-49.9-0.2c-3,13.2-6,26.6-10.2,45.6c7.9,0,51.4-0.8,56.5-0.8l1,0.9c-1.7,5.5-3,9.2-4.5,14.7L1070.4,2051.2z"/>
		<path class="st1" d="M1172.5,2051.2h-39.2c-12.6,0-21.3,0-33.9,0.4l-2.6,0.2l-0.9-1.3c12.8-50.1,23.6-103.8,29.4-131.3l1.3-1.3
			h1.7c5.5,0,14.3,0.2,22.6,0.2h21.8c10.4,0,20.7-0.4,27.7-0.4l1.1,1.1c-1.7,5.1-2.6,8.7-4,13.9l-1.5,1.1c-11.5,0-27.3-0.6-43.3-0.6
			c-3.2,0-9.2,0.2-9.2,0.2l-9.2,41.1c37.7-0.2,43.3-0.6,51.4-0.6l0.8,1.3c-1.5,4.9-2.5,8.3-3.8,13.2l-1.7,1.3
			c-6.6-0.2-35.4-0.2-49.9-0.2c-3,13.2-6,26.6-10.2,45.6c7.9,0,51.4-0.8,56.5-0.8l0.9,0.9c-1.7,5.5-3,9.2-4.5,14.7L1172.5,2051.2z"
			/>
		<path class="st1" d="M1274.6,2051.2h-39.2c-12.6,0-21.3,0-33.9,0.4l-2.6,0.2l-0.9-1.3c12.8-50.1,23.6-103.8,29.4-131.3l1.3-1.3
			h1.7c5.5,0,14.3,0.2,22.6,0.2h21.9c10.4,0,20.7-0.4,27.7-0.4l1.1,1.1c-1.7,5.1-2.6,8.7-4,13.9l-1.5,1.1c-11.5,0-27.3-0.6-43.3-0.6
			c-3.2,0-9.2,0.2-9.2,0.2l-9.2,41.1c37.7-0.2,43.3-0.6,51.4-0.6l0.8,1.3c-1.5,4.9-2.4,8.3-3.8,13.2l-1.7,1.3
			c-6.6-0.2-35.4-0.2-49.9-0.2c-3,13.2-6,26.6-10.2,45.6c7.9,0,51.4-0.8,56.5-0.8l0.9,0.9c-1.7,5.5-3,9.2-4.5,14.7L1274.6,2051.2z"
			/>
		<path class="st1" d="M857,2540.2c2.1,4,13.4,14.5,31.5,14.5c22,0,31.5-12.6,31.5-24.1c0-11.9-7.3-17.1-21.3-24.3l-6.2-3.2
			c-12.2-6.2-24.3-13.4-24.3-32.4c0-18.3,13-39.6,48.2-39.6c17.5,0,28.8,5.3,36.4,10.4l0.6,1.5c-1.9,5.6-3.4,9.8-5.1,15.6l-1.7,0.4
			c-7.2-9.2-20.7-12.4-28.8-12.4c-19.6,0-28.3,10.9-28.3,22c0,10.2,6,14.3,21.3,22.2l5.5,2.8c12.2,6.4,25.4,15.4,25.4,34.5
			c0,18.8-14.5,42.4-50.9,42.4c-18.3,0-33.2-5.7-39.4-11.7l-0.6-1.7c1.9-6,2.8-10.4,4.3-16.6L857,2540.2z"/>
		<path class="st1" d="M1011.1,2467.3c23.4,0,40.3,11.9,40.3,36.9c0,19.8-9,65.4-53.5,65.4c-11.9,0-39.2-2.8-39.2-37.7
			C958.8,2501.4,975.3,2467.3,1011.1,2467.3 M998.3,2555.6c28.4,0,33.2-46,33.2-52.4c0-18.3-11.1-22.2-19.6-22.2
			c-26,0-33.2,38.6-33.2,52.2C978.7,2545.3,984.4,2555.6,998.3,2555.6"/>
		<path class="st1" d="M1128.5,2564.3c-6.6,3.8-17.7,5.3-24.3,5.3c-24.3,0-41.1-18.3-41.1-42.2c0-15.6,6.8-39.9,27.5-52.6
			c10.9-6.6,22.4-7.5,27.5-7.5c13.2,0,23.5,3.2,29.2,7.5l0.6,1.3c-2.1,5.5-3.2,9.4-4.7,14.9l-1.9,0.6c-3-5.1-11.3-9.4-21.3-9.4
			c-23.5,0-36.4,24.9-36.4,43.7c0,22,17.1,28.4,26.2,28.4c3.2,0,13-0.4,23-9l1.5,0.8c-2.1,6.2-3.2,10.5-4.7,17L1128.5,2564.3z"/>
		<path class="st1" d="M1165,2567.1c-7.3,0-12.6,0.2-20,0.6l-0.9-1.1c6-21.9,19.4-84,20.3-94.2l1.3-1.3c7.7-0.9,13-1.7,20.5-3
			l0.9,1.3c-0.9-0.2-16.6,71.6-20.9,96.8L1165,2567.1z M1192,2443c-7.3,0.9-12.4,1.5-19.8,2.6l-1.1-1.5c1.5-6.4,2.6-10.9,4-17.3
			l1.7-1.3c7.3-0.9,12.4-1.5,19.6-2.6l1.5,1.3c-1.7,6.2-2.8,10.9-4.3,17.3L1192,2443z"/>
		<path class="st1" d="M1271.3,2562c-6.4,3.8-16.2,7.5-30.7,7.5c-32.2,0-43.7-19.2-43.7-40.9c0-33,20.2-61.4,52.7-61.4
			c22.2,0,38.1,10.2,38.1,35.2c0,7.7-1.7,14.3-2.3,17.1l-1.3,0.9c-9.8,0-27.7-0.2-44.1-0.2c-8.5,0-14.7,0-23.2,0.4
			c-0.2,1.1-0.6,4.5-0.6,8.1c0,24.7,21.5,25.2,28.3,25.2c15.6,0,23.7-6,31.1-11.3l1.5,0.9c-2.1,6.2-3.4,10.5-4.9,17L1271.3,2562z
			 M1268.8,2507.2c0.8-4.3,0.9-6.2,0.9-8.3c-0.4-17.1-14.5-18.5-19.4-18.5c-21.7,0-29,20-31.1,26.9
			C1219.3,2507.4,1256.8,2507.2,1268.8,2507.2"/>
		<path class="st1" d="M1334.9,2566.9c-6.2,1.5-11.1,1.7-13.6,1.7c-17.9,0-22.4-9.2-22.4-18.6c0-7.2,3.9-23.7,9.4-46.5l4.7-19.6
			h-3.8c-3.6,0-6.2,0-9.8,0.2l-0.9-1.3c1.3-4.3,2.2-7.7,3.4-12.4l1.3-0.9c4.9,0.2,8.1,0.2,13,0.2c2.3-8.7,3.4-14.9,5.1-23.6l1.3-1.3
			c7.3-1.5,12.4-2.8,19.6-4.7l0.9,1.1c-1.5,5.1-2.4,8.9-3.8,13.9l-3.6,14.5c7.7,0,13,0,20.5-0.4l0.9,1.3c-1.7,4.5-2.6,7.9-4,12.4
			l-1.3,1.1c-7.2-0.2-12.2-0.2-19.4-0.2l-10.2,42.6c-0.9,3.8-3.6,15.4-3.6,19.2c0,6,4.3,8.1,9.2,8.1c4.9,0,9.4-1.9,11.1-2.4l1,1
			c-1.5,4.9-2.6,8.3-4,13.2L1334.9,2566.9z"/>
		<path class="st1" d="M1449.7,2470.7c-22.6,36.5-75.5,125.3-82.7,141.3l-1.5,1.1h-8.5c-3.8,0-7.3,0-11.1,0.2l-0.6-1.3
			c5.5-8.3,24.1-37.1,28.6-45.4c-7.2-46.9-14.1-93.4-15.1-95.7l1.3-1.3c7.2,0,12.2-0.4,19.6-0.9l1.5,0.9c0.9,10.4,1.5,17.7,2.8,27.9
			l5.5,44.5l18.3-32.4c7.2-12.6,14.3-25.4,21.1-39l1.5-1.1c2.1,0.2,4.1,0.2,6.2,0.2c4.5,0,7.7-0.2,12.1-0.4L1449.7,2470.7z"/>
		<path class="st1" d="M985.9,2396.3c-11.9,0-20.3,0.2-32.2,0.7l-1.1-1.3c0-7.5,0-13-0.9-34.7h-4.1c-3.8,0-12.2-0.2-19.4-0.2h-16
			c-10,20.9-12.8,26.4-16.4,34.3l-1.3,1.1h-7.5c-8.5,0-14.3,0.2-22.6,0.6l-0.7-2.1c19-33.5,52.4-96.6,69.9-130.4l1.5-0.9
			c15.1-0.2,25.8-0.4,40.9-0.8l0.9,1.1c3.2,47.1,6,83.8,10.4,131.5L985.9,2396.3z M922.9,2338.3c3.6,0.2,6.2,0.2,9.8,0.2h4.5
			c5.1,0,10.4,0,13.8-0.2c-0.9-37.1-1.5-53.7-1.5-53.7L922.9,2338.3z"/>
		<path class="st1" d="M1087.6,2396.3c-10.9,0-18.6,0.4-29.4,0.8l-1-1.3l2.3-9.4c-4.9,5.3-17.1,12.2-29.4,12.2
			c-7.2,0-26.4-2.6-26.4-25.2c0-7.2,2.6-18.7,4.5-26.8l4.3-18.7c2.4-10.7,4.3-18.3,6-29.2l1.3-1.1c11.1-0.4,18.8-0.7,29.8-1.5
			l1.1,1.5c-7,29.9-14.5,57.6-14.5,66.3c0,4,1.3,10.9,11.1,10.9c7.3,0,13.6-4.7,16-6.6l7.9-36.5c2.3-10.7,4.5-21.9,6.6-33l1.5-1.1
			c11.1-0.4,19-0.7,30.3-1.5l0.9,1.5c-4.5,18.1-7.7,31.5-11.9,50.1l-4.1,18.8c-2.3,10.5-4,17.9-5.8,28.6L1087.6,2396.3z"/>
		<path class="st1" d="M1163.9,2396.3c-7.9,1.9-14.7,2.1-17.3,2.1c-21.5,0-28.3-9.2-28.3-22c0-7.2,2.1-16,6.2-32.6l6.4-26h-2.1
			c-4.1,0-7.2,0.2-11.1,0.4l-1.1-1.3c2.1-7,3.4-12.1,5.3-19l1.3-1.1h12.6c2.1-8.8,3.6-15.1,5.3-24.1l1.3-1.3
			c11.5-2.6,19.6-4.7,30.9-8.1l1.1,1.3c-1.5,5.3-2.4,10-8.3,32.8c7.2-0.2,12.2-0.2,19.4-0.6l0.8,1.5c-2.4,6.8-4.1,11.7-5.8,18.8
			l-1.7,1.1c-6.4-0.2-10.9-0.2-17.3-0.2l-7.9,33c-1.9,7.9-3.6,15.1-3.6,17.9c0,3.4,2.1,7.7,9.4,7.7c4.9,0,8.3-1.5,10.4-2.3l1.1,0.9
			c-2.2,7.3-3.6,12.4-5.6,19.6L1163.9,2396.3z"/>
		<path class="st1" d="M1242.6,2294.4c11.9,0,43.1,4.9,43.1,40.5c0,37.5-20.9,63.9-57.6,63.9c-37.9,0-45-23.5-45-41.1
			C1183.1,2345.3,1188.2,2294.4,1242.6,2294.4 M1228.7,2378.8c20,0,25.8-34.5,25.8-48c0-6.4-1.9-16.4-14.1-16.4
			c-22.6,0-25.8,41.8-25.8,47.7C1214.6,2374.8,1221.5,2378.8,1228.7,2378.8"/>
		<path class="st1" d="M1436.1,2396.3c-10.4,0-20.5,0.4-30.7,0.8l-1-1.3c2.5-11.1,14.7-58.4,14.7-67.2c0-2.6-0.9-10-9.6-10
			c-3.4,0-9,0.9-15.3,6.2c-0.7,12.2-11.1,53.1-13.9,70.4l-1.3,1.1c-10.2,0.2-20.3,0.4-30.3,0.8l-1-1.5c1.5-8.1,14.1-56.7,14.1-67.2
			c0-5.7-2.8-9.8-9.4-9.8c-3.2,0-8.5,1.1-13.9,6l-6.4,28.3c-3,13.6-6.4,29-8.8,42.4l-1.1,1.1c-10.4,0-20.7,0.4-30.9,0.8l-0.9-1.3
			c7-26.2,19.4-82.5,20.3-95.1l1.3-1.1c10.2-1.5,21.3-3.2,31.6-5.3l1.1,1.3l-2.5,11.1c8.5-7.2,19.6-12.2,30.7-12.2
			c6.8,0,15.4,2.3,20.2,13.6c13.4-10.7,25.2-13.4,32.8-13.4c6.4,0,26.6,1.5,26.6,24.1c0,3-0.8,8.3-3,18.6l-4,18.1
			c-2.8,13.2-5.5,26.6-8.1,39.7L1436.1,2396.3z"/>
		<path class="st1" d="M1550.2,2396.3c-10.6,0.2-17.9,0.2-28.4,0.8l-0.9-1.3l1.3-8.3c-4.7,4.9-14.3,10.9-27.1,10.9
			c-22.4,0-31.3-18.1-31.3-36.2c0-17.3,6.4-30.5,10.5-37.1c17.5-27.5,44.6-28.6,65-28.6h32l1.1,1.5c-14.1,59-17.7,74.4-20.9,97.2
			L1550.2,2396.3z M1537.2,2317.4c-1.7-0.2-2.8-0.2-5.8-0.2c-26,0-34.8,26.4-34.8,40.9c0,14.1,7,18.8,14.9,18.8
			c1.3,0,8.3-0.6,13.6-5.8C1529.9,2352.8,1532.9,2335.8,1537.2,2317.4"/>
		<path class="st1" d="M1625.8,2396.3c-7.9,1.9-14.7,2.1-17.3,2.1c-21.5,0-28.3-9.2-28.3-22c0-7.2,2.1-16,6.2-32.6l6.4-26h-2.1
			c-4.1,0-7.2,0.2-11.1,0.4l-1.1-1.3c2.1-7,3.4-12.1,5.3-19l1.3-1.1h12.6c2.1-8.8,3.6-15.1,5.3-24.1l1.3-1.3
			c11.5-2.6,19.6-4.7,30.9-8.1l1.1,1.3c-1.5,5.3-2.4,10-8.3,32.8c7.2-0.2,12.2-0.2,19.4-0.6l0.7,1.5c-2.4,6.8-4.1,11.7-5.8,18.8
			l-1.7,1.1c-6.4-0.2-10.9-0.2-17.3-0.2l-7.9,33c-1.9,7.9-3.6,15.1-3.6,17.9c0,3.4,2.1,7.7,9.4,7.7c4.9,0,8.3-1.5,10.4-2.3l1.1,0.9
			c-2.3,7.3-3.6,12.4-5.6,19.6L1625.8,2396.3z"/>
		<path class="st1" d="M1684.7,2348.5l-3,13.9c-2.3,10.9-4.2,21.9-6,33l-1.3,0.9c-10.9,0-21.9,0.2-32.6,0.8l-0.9-1.3
			c4.3-16.6,8.5-33.5,12.2-50.5l2.1-9.2c2.6-11.7,5.1-23.5,6.4-35.2l1.3-1.3c11.1-1.5,22.2-3.2,33.1-5.3l1.1,1.5
			C1692.8,2312.7,1688.5,2330.7,1684.7,2348.5 M1706.6,2251.3c-1.7,8.5-4,16.8-6,25.1l-1.5,1.5c-10.2,1.3-20.3,2.8-30.7,4.3
			l-1.1-1.5c1.9-8.3,3.8-16.8,5.5-25.2l1.7-1.3c10.2-1.3,21.8-3,31.1-4.1L1706.6,2251.3z"/>
		<path class="st1" d="M1761.4,2294.4c11.9,0,43.1,4.9,43.1,40.5c0,37.5-20.9,63.9-57.6,63.9c-37.9,0-45-23.5-45-41.1
			C1701.9,2345.3,1707,2294.4,1761.4,2294.4 M1747.5,2378.8c20,0,25.8-34.5,25.8-48c0-6.4-1.9-16.4-14.1-16.4
			c-22.6,0-25.8,41.8-25.8,47.7C1733.3,2374.8,1740.3,2378.8,1747.5,2378.8"/>
		<path class="st1" d="M1864.3,2295.3l-2.4,10.4c3.4-2.6,15.1-11.3,29.8-11.3c7.3,0,25.2,2.8,25.2,24.9c0,11.5-13.4,67.3-14.3,76.1
			l-1.3,0.9c-10.4,0.2-20.5,0.4-30.7,0.8l-0.8-1.3c4.3-20.2,13.8-56.3,13.8-66.5c0-6.2-3.8-10.7-10.4-10.7c-5.5,0-10.5,2.8-14.7,5.8
			c-5.3,23.5-12.4,57.1-14.9,70.8l-1.3,1.1c-10.4,0-20.7,0.4-31.1,0.8l-0.7-1.3c3.4-14.7,18.5-75.7,19.6-94.9l1.5-1.5
			c11.3-1.5,21.3-3.2,31.6-5.3L1864.3,2295.3z"/>
	</g>
</g>
<g id="Logo_3_">
	<g id="Logo_4_">
		<path class="st2" d="M2738.4,2006.2c13.2,35.2,12,83.7,2.1,123c-9.5,37.5-25.3,70.2-42,99.3c-69.3,120.6-178.1,202-286.4,280.1
			c-7.2-9-11.6-19.3-17.9-31c-2.5-4.6-5.8-9.9-8.9-15.8c-2.5-4.5-7.7-11.9-7.9-16.3c-0.3-5.7,8-17.8,11.6-24.2
			c62.6-113.3,126-233,188.6-344.2c14.7-0.9,33-0.9,47.8,0c3,10.7,3.9,22.4,5.3,34.2c2.5,23.3,4.7,47.6,7.3,71.5
			c1.2,11.7,0.4,23.7,5.3,33.6c12.3-2.7,20.1-14.5,27.3-24.2c22.1-29.4,39.7-67,44.7-112.5c7.4-67.7-30.1-110.4-85.1-121.4
			c-32.8-6.6-66-2.1-94.1,4.7c-57.4,13.9-101.4,35.6-146.6,62.5c-16.4,9.7-32.3,19.3-48.3,30.5c-5,3.5-11.2,9.7-15.8,10
			c-4.5,0.3-10.8-3.6-16.3-5.8c-15.5-6-33.7-10.2-55.2-10.5c-29.4-0.4-52.4,7.6-74.1,12.6c3.2-7.5,11.2-11.1,17.3-15.8
			c43.1-32.5,92.5-61.9,145-85.7c61-27.5,127.2-49.7,210.2-53.6C2645.6,1903,2713.2,1939.7,2738.4,2006.2"/>
		<path class="st2" d="M2669.5,2507c1.8,19.7,5.3,39.6,3.7,57.3c-4.6,2.5-12.9,1.6-22.1,1.6c-7.7,0-18,1.1-22.1-1.6
			c-3-1.9-7-11.8-9.5-16.8c-17.8-35.4-33.5-67.5-52-102.5c-3.1-5.6-8.4-13.9-7.9-17.9c0.7-5.3,8.7-7.1,11-11
			c27.3-24,52.2-50.4,76.7-77.2c6.1-5.3,6.3,5.4,6.8,10C2659.6,2401.9,2664.7,2454.3,2669.5,2507"/>
		<path class="st2" d="M2407.9,2546.9c2.5,4.4,6,9.3,5.8,14.7c-3.9,5.5-14.5,3.7-22.6,3.7c-8.8,0-18.7,1.3-25.7-0.5
			c-4.5-1.1-11.2-7.4-16.3-11.6c-55.4-45.4-110.9-90.6-166.6-135.1c-20.6-16.4-41.5-31.7-60.4-49.4c-1-9.5-0.9-22.5,0-32.1
			c44.7-11.9,79.8-32.3,109.8-60.4c14.2-13.3,26.8-28.6,37.8-47.3c10.2-17.5,21.4-38.5,19.4-65.7c-2.9-39.3-33.8-58.9-75.7-58.9
			c-32.5,0-55.9,11.4-79.9,21c-7.4,3-16.1,9.3-25.2,5.3c2-5.3,7.5-8.8,12.1-12.1c30.5-22.2,72-44.9,120.9-47.8
			c80-4.7,125.6,45.4,132.9,114.6c8.6,81.4-31.5,135.7-81.4,163.4C2330.6,2415.5,2369.1,2480.8,2407.9,2546.9"/>
		<path class="st2" d="M2298.6,2544.8c4.9,4,9.6,7.3,12.6,12.1c-33.2,14.4-68.9,24.2-108.3,31c-40.1,6.9-85.7,9.1-127.2,1.6
			c-75.6-13.7-131.4-57.5-138.2-140.3c-3.6-42.8,6.2-84.2,19.4-117.7c13.4-34.2,30.8-62.8,50.4-88.8
			c39.4-52.4,87.1-99.8,169.2-109.3c23.8-2.7,45.1,2.6,59.4,13.7c3.2,2.4,11.6,8.5,11,12.6c-0.5,3.8-13.1,9.4-17.3,12.1
			c-40.8,26.5-80.8,58.2-114,89.9c-29.5,29.1-57.1,58.9-79.3,95.6c-20.4,33.6-43.1,89.6-21,134.5c27.8,56.8,113,70.1,196,57.8
			c17.9-2.6,37.1-5.9,55.2-10.5c6-1.5,12.8-4.6,17.3-4.2C2288.7,2535.3,2294.6,2541.6,2298.6,2544.8"/>
	</g>
	<g id="Tagline_1_">
		<path class="st2" d="M2716,2514.2c4.7,0,9.2,1.2,13.6,3.6c4.4,2.4,7.9,5.8,10.4,10.3c2.5,4.5,3.7,9.1,3.7,13.9
			c0,4.8-1.2,9.4-3.7,13.8c-2.4,4.4-5.9,7.8-10.3,10.3c-4.4,2.4-9,3.7-13.8,3.7c-4.8,0-9.4-1.2-13.8-3.7c-4.4-2.4-7.8-5.9-10.3-10.3
			c-2.5-4.4-3.7-9-3.7-13.8c0-4.8,1.2-9.5,3.7-13.9c2.5-4.5,6-7.9,10.4-10.3C2706.8,2515.4,2711.4,2514.2,2716,2514.2 M2716,2518.8
			c-3.9,0-7.7,1-11.4,3c-3.7,2-6.6,4.9-8.7,8.6c-2.1,3.7-3.1,7.6-3.1,11.6c0,4,1,7.8,3.1,11.5c2,3.7,4.9,6.5,8.6,8.6
			c3.7,2,7.5,3.1,11.5,3.1c4,0,7.8-1,11.5-3.1c3.7-2,6.5-4.9,8.6-8.6c2-3.7,3.1-7.5,3.1-11.5c0-4-1-7.9-3.1-11.6
			c-2.1-3.7-5-6.6-8.7-8.6C2723.7,2519.8,2719.9,2518.8,2716,2518.8 M2703.9,2557.3v-29.9h10.3c3.5,0,6.1,0.3,7.6,0.8
			c1.6,0.6,2.8,1.5,3.8,2.9c0.9,1.4,1.4,2.8,1.4,4.4c0,2.2-0.8,4.1-2.3,5.7c-1.6,1.6-3.6,2.5-6.2,2.7c1.1,0.4,1.9,1,2.5,1.6
			c1.2,1.2,2.7,3.2,4.4,5.9l3.6,5.9h-5.9l-2.6-4.7c-2.1-3.7-3.8-6-5-7c-0.9-0.7-2.2-1-3.9-1h-2.8v12.7H2703.9z M2708.7,2540.5h5.8
			c2.8,0,4.7-0.4,5.7-1.3c1-0.8,1.5-1.9,1.5-3.3c0-0.9-0.2-1.7-0.7-2.4c-0.5-0.7-1.2-1.2-2-1.6c-0.9-0.3-2.5-0.5-4.8-0.5h-5.5
			V2540.5z"/>
		<path class="st2" d="M2941.5,2223.8c-10.9,0.2-21.9,0.6-32.8,1.3l-1.3-1.1c-7.2-21.7-11.3-34.7-17.3-51.6
			c-3.2,0.2-6.4,0.2-9.6,0.2c-4.1,16.6-7.5,34.1-10.5,50.9l-1.3,0.9c-8.3,0-31.6,0.6-31.6,0.6l-0.9-1.1
			c5.5-22.6,24.7-98.1,29.2-131.3l1.1-0.9c9.2,0,33.7-0.4,48.6-0.4c21.7,0,40.5,7,40.5,33c0,20.7-12.4,37.3-35.6,42.8
			c16.2,40.1,19.4,47.5,22.6,55.4L2941.5,2223.8z M2893.1,2150.9c15.6,0,29.4-7,29.4-23.5c0-12.2-9.8-13.8-19.6-13.8
			c-1.1,0-2.8,0.2-8.5,0.2c-0.9,3.8-2.1,7.5-8.9,37.1H2893.1z"/>
		<path class="st2" d="M3017.8,2122.4c11.9,0,43.1,4.9,43.1,40.5c0,37.5-20.9,63.9-57.6,63.9c-37.9,0-45-23.5-45-41.1
			C2958.3,2173.3,2963.3,2122.4,3017.8,2122.4 M3003.9,2206.8c20,0,25.8-34.5,25.8-48c0-6.4-1.9-16.4-14.1-16.4
			c-22.6,0-25.8,41.8-25.8,47.7C2989.7,2202.9,2996.7,2206.8,3003.9,2206.8"/>
		<path class="st2" d="M3061.3,2223.4c2.8-11.9,5.5-21.5,7.9-32.4l9-39.2c5.5-23.6,11.1-46.7,14.7-70.6l1.5-1.3
			c10.7-1.7,21.5-3.6,32.2-5.5l0.9,1.3c-1.5,6.8-3.2,13.2-4.9,19.8l-8.9,35.2c3.4-2.3,12.6-8.3,24.9-8.3c24.9,0,31.6,22,31.6,36.9
			c0,18.6-8.7,39.6-23.4,51.4c-16.6,13.4-36.2,13.8-56.1,13.8h-13.2c-5.1,0-10.2,0-15.3,0.2L3061.3,2223.4z M3101.4,2204
			c5.5,0,15.1-0.6,23.4-8.7c7.9-7.7,13.4-21.3,13.4-32.4c0-14.3-7.9-18.3-14.7-18.3c-7,0-11.9,3.8-13.9,5.1l-12.4,54.3H3101.4z"/>
		<path class="st2" d="M3237.8,2122.4c11.9,0,43.1,4.9,43.1,40.5c0,37.5-20.9,63.9-57.6,63.9c-37.9,0-45-23.5-45-41.1
			C3178.3,2173.3,3183.4,2122.4,3237.8,2122.4 M3223.9,2206.8c20,0,25.8-34.5,25.8-48c0-6.4-1.9-16.4-14.1-16.4
			c-22.6,0-25.8,41.8-25.8,47.7C3209.7,2202.9,3216.7,2206.8,3223.9,2206.8"/>
		<path class="st2" d="M3339.5,2224.4c-7.9,1.9-14.7,2.1-17.3,2.1c-21.5,0-28.3-9.2-28.3-22c0-7.2,2.1-16,6.2-32.6l6.4-26h-2.1
			c-4.1,0-7.2,0.2-11.1,0.4l-1.1-1.3c2.1-7,3.4-12.1,5.3-19l1.3-1.1h12.6c2.1-8.9,3.6-15.1,5.3-24.1l1.3-1.3
			c11.5-2.6,19.6-4.7,30.9-8.1l1.1,1.3c-1.5,5.3-2.4,10-8.3,32.8c7.2-0.2,12.2-0.2,19.4-0.6l0.8,1.5c-2.4,6.8-4.1,11.7-5.8,18.8
			l-1.7,1.1c-6.4-0.2-10.9-0.2-17.3-0.2l-7.9,33c-1.9,7.9-3.6,15.1-3.6,17.9c0,3.4,2.1,7.7,9.4,7.7c4.9,0,8.3-1.5,10.4-2.3l1.1,0.9
			c-2.3,7.3-3.6,12.4-5.6,19.6L3339.5,2224.4z"/>
		<path class="st2" d="M3398.5,2176.5l-3,13.9c-2.3,10.9-4.1,21.9-6,33l-1.3,0.9c-10.9,0-21.9,0.2-32.6,0.8l-0.9-1.3
			c4.3-16.6,8.5-33.5,12.2-50.5l2.1-9.2c2.6-11.7,5.1-23.6,6.4-35.2l1.3-1.3c11.1-1.5,22.2-3.2,33.2-5.3l1.1,1.5
			C3406.6,2140.7,3402.3,2158.8,3398.5,2176.5 M3420.3,2079.3c-1.7,8.5-4,16.8-6,25.1l-1.5,1.5c-10.2,1.3-20.3,2.8-30.7,4.3
			l-1.1-1.5c1.9-8.3,3.8-16.8,5.5-25.2l1.7-1.3c10.2-1.3,21.9-3,31.1-4.1L3420.3,2079.3z"/>
		<path class="st2" d="M3483.3,2222.1c-4.9,2.1-12.4,4.7-23.7,4.7c-28.1,0-44.8-17.5-44.8-43.9c0-26.4,14.1-44.3,27.9-52.6
			c13.2-7.9,27.9-7.9,31.5-7.9c8.5,0,20.2,1.9,28.4,7.7l0.4,1.5c-2.6,7.7-4.3,13.4-6.4,21.5l-1.9,0.4c-6.4-9-16.8-9-18.1-9
			c-20.9,0-29.4,21.5-29.4,36c0,12.6,6.4,23.9,21.5,23.9c10,0,15.6-4.1,20.2-7.5l1.7,0.9c-2.4,8.5-3.9,14.5-6,23L3483.3,2222.1z"/>
		<path class="st2" d="M3504.9,2195.2c8.1,9.2,17.9,12.2,26.4,12.2c10,0,16-4.5,16-10.9c0-5.3-3.2-7.5-12.8-12.4l-4.1-2.1
			c-6.8-3.4-19.6-9.6-19.6-25.6c0-16.4,11.7-33.9,43.1-33.9c15.6,0,25.1,4,32,7.5l1,1.7c-2.4,7.3-4,12.6-5.8,20.2l-1.7,0.4
			c-9-10.7-19.4-10.9-22.4-10.9c-9,0-14.9,4-14.9,9.6c0,4.3,3.6,7.2,11.5,10.9l4.3,2.1c7.3,3.6,21.7,10.4,21.7,28.1
			c0,17.9-13.8,35-45.6,35c-17.3,0-28.5-4.7-36-9.4l-0.6-1.7c2.4-7.3,3.8-12.6,5.8-20.2L3504.9,2195.2z"/>
		<path class="st2" d="M3755.1,2174.1c-6.6,8.5-14.7,16.2-23.6,24.7c5.1,8.1,10.2,16.2,15.4,24.3l-0.6,1.7h-10.9
			c-11.3,0-14.9,0-22.4,0.4l-1.5-1.1c-1.3-3-3-5.6-4.7-8.3c-11.5,7.5-22.2,11.3-35,11.3c-22,0-37.1-13.4-37.1-33
			c0-9.2,4-18.7,10.6-25.2c5.3-5.3,10.9-8.7,26.4-16c-5.5-10-7.3-16.8-7.3-25.4c0-19.4,15.1-32.6,37.7-32.6
			c20.9,0,34.5,10.5,34.5,26.9c0,15.1-10,23.9-29.6,35.2c4.3,7.9,8.7,15.6,13.4,23c14.5-15.4,15.5-16.8,21.1-27.1h1.9
			c3.6,6.8,7.9,13.2,12.1,19.8L3755.1,2174.1z M3682.6,2172.9c-12.4,6.6-16.4,11.1-16.4,18.5c0,7.2,5.3,12.4,13,12.4
			c5.3,0,10-1.9,17.1-6.8C3692,2188.9,3687.1,2181,3682.6,2172.9 M3702.9,2112.8c-5.8,0-10.7,4.9-10.7,10.9c0,4.3,1.1,7.5,5.3,15.8
			c11.7-7.3,15.3-11.1,15.3-17.3C3712.7,2116.8,3708.6,2112.8,3702.9,2112.8"/>
		<path class="st2" d="M2900.2,2051h-4.9c-5.6,0-9.8,0.2-15.4,0.4l-0.9-1.3c5.8-23.7,25.4-108.7,29.2-130.9l1.1-1.1h5.5
			c5.6,0,9.8,0,15.4-0.4l0.8,1.1c-6.2,24.9-21.1,87.2-29.2,131.3L2900.2,2051z"/>
		<path class="st2" d="M3010.4,2051.2h-39.2c-12.6,0-21.3,0-33.9,0.4l-2.6,0.2l-0.9-1.3c12.8-50.1,23.6-103.8,29.4-131.3l1.3-1.3
			h1.7c5.5,0,14.3,0.2,22.6,0.2h21.8c10.4,0,20.7-0.4,27.7-0.4l1.1,1.1c-1.7,5.1-2.6,8.7-4,13.9l-1.5,1.1c-11.5,0-27.3-0.6-43.3-0.6
			c-3.2,0-9.2,0.2-9.2,0.2l-9.2,41.1c37.7-0.2,43.3-0.6,51.4-0.6l0.8,1.3c-1.5,4.9-2.5,8.3-3.8,13.2l-1.7,1.3
			c-6.6-0.2-35.4-0.2-49.9-0.2c-3,13.2-6,26.6-10.2,45.6c7.9,0,51.4-0.8,56.5-0.8l1,0.9c-1.7,5.5-3,9.2-4.5,14.7L3010.4,2051.2z"/>
		<path class="st2" d="M3112.5,2051.2h-39.2c-12.6,0-21.3,0-33.9,0.4l-2.6,0.2l-0.9-1.3c12.8-50.1,23.6-103.8,29.4-131.3l1.3-1.3
			h1.7c5.5,0,14.3,0.2,22.6,0.2h21.8c10.4,0,20.7-0.4,27.7-0.4l1.1,1.1c-1.7,5.1-2.6,8.7-4,13.9l-1.5,1.1c-11.5,0-27.3-0.6-43.3-0.6
			c-3.2,0-9.2,0.2-9.2,0.2l-9.2,41.1c37.7-0.2,43.3-0.6,51.4-0.6l0.8,1.3c-1.5,4.9-2.5,8.3-3.8,13.2l-1.7,1.3
			c-6.6-0.2-35.4-0.2-49.9-0.2c-3,13.2-6,26.6-10.2,45.6c7.9,0,51.4-0.8,56.5-0.8l0.9,0.9c-1.7,5.5-3,9.2-4.5,14.7L3112.5,2051.2z"
			/>
		<path class="st2" d="M3214.6,2051.2h-39.2c-12.6,0-21.3,0-33.9,0.4l-2.6,0.2l-0.9-1.3c12.8-50.1,23.6-103.8,29.4-131.3l1.3-1.3
			h1.7c5.5,0,14.3,0.2,22.6,0.2h21.9c10.4,0,20.7-0.4,27.7-0.4l1.1,1.1c-1.7,5.1-2.6,8.7-4,13.9l-1.5,1.1c-11.5,0-27.3-0.6-43.3-0.6
			c-3.2,0-9.2,0.2-9.2,0.2l-9.2,41.1c37.7-0.2,43.3-0.6,51.4-0.6l0.8,1.3c-1.5,4.9-2.4,8.3-3.8,13.2l-1.7,1.3
			c-6.6-0.2-35.4-0.2-49.9-0.2c-3,13.2-6,26.6-10.2,45.6c7.9,0,51.4-0.8,56.5-0.8l0.9,0.9c-1.7,5.5-3,9.2-4.5,14.7L3214.6,2051.2z"
			/>
		<path class="st2" d="M2797,2540.2c2.1,4,13.4,14.5,31.5,14.5c22,0,31.5-12.6,31.5-24.1c0-11.9-7.3-17.1-21.3-24.3l-6.2-3.2
			c-12.2-6.2-24.3-13.4-24.3-32.4c0-18.3,13-39.6,48.2-39.6c17.5,0,28.8,5.3,36.4,10.4l0.6,1.5c-1.9,5.6-3.4,9.8-5.1,15.6l-1.7,0.4
			c-7.2-9.2-20.7-12.4-28.8-12.4c-19.6,0-28.3,10.9-28.3,22c0,10.2,6,14.3,21.3,22.2l5.5,2.8c12.2,6.4,25.4,15.4,25.4,34.5
			c0,18.8-14.5,42.4-50.9,42.4c-18.3,0-33.2-5.7-39.4-11.7l-0.6-1.7c1.9-6,2.8-10.4,4.3-16.6L2797,2540.2z"/>
		<path class="st2" d="M2951.1,2467.3c23.4,0,40.3,11.9,40.3,36.9c0,19.8-9,65.4-53.5,65.4c-11.9,0-39.2-2.8-39.2-37.7
			C2898.8,2501.4,2915.3,2467.3,2951.1,2467.3 M2938.3,2555.6c28.4,0,33.2-46,33.2-52.4c0-18.3-11.1-22.2-19.6-22.2
			c-26,0-33.2,38.6-33.2,52.2C2918.7,2545.3,2924.4,2555.6,2938.3,2555.6"/>
		<path class="st2" d="M3068.5,2564.3c-6.6,3.8-17.7,5.3-24.3,5.3c-24.3,0-41.1-18.3-41.1-42.2c0-15.6,6.8-39.9,27.5-52.6
			c10.9-6.6,22.4-7.5,27.5-7.5c13.2,0,23.5,3.2,29.2,7.5l0.6,1.3c-2.1,5.5-3.2,9.4-4.7,14.9l-1.9,0.6c-3-5.1-11.3-9.4-21.3-9.4
			c-23.5,0-36.4,24.9-36.4,43.7c0,22,17.1,28.4,26.2,28.4c3.2,0,13-0.4,23-9l1.5,0.8c-2.1,6.2-3.2,10.5-4.7,17L3068.5,2564.3z"/>
		<path class="st2" d="M3105,2567.1c-7.3,0-12.6,0.2-20,0.6l-0.9-1.1c6-21.9,19.4-84,20.3-94.2l1.3-1.3c7.7-0.9,13-1.7,20.5-3
			l0.9,1.3c-0.9-0.2-16.6,71.6-20.9,96.8L3105,2567.1z M3132,2443c-7.3,0.9-12.4,1.5-19.8,2.6l-1.1-1.5c1.5-6.4,2.6-10.9,4-17.3
			l1.7-1.3c7.3-0.9,12.4-1.5,19.6-2.6l1.5,1.3c-1.7,6.2-2.8,10.9-4.3,17.3L3132,2443z"/>
		<path class="st2" d="M3211.3,2562c-6.4,3.8-16.2,7.5-30.7,7.5c-32.2,0-43.7-19.2-43.7-40.9c0-33,20.2-61.4,52.7-61.4
			c22.2,0,38.1,10.2,38.1,35.2c0,7.7-1.7,14.3-2.3,17.1l-1.3,0.9c-9.8,0-27.7-0.2-44.1-0.2c-8.5,0-14.7,0-23.2,0.4
			c-0.2,1.1-0.6,4.5-0.6,8.1c0,24.7,21.5,25.2,28.3,25.2c15.6,0,23.7-6,31.1-11.3l1.5,0.9c-2.1,6.2-3.4,10.5-4.9,17L3211.3,2562z
			 M3208.8,2507.2c0.8-4.3,0.9-6.2,0.9-8.3c-0.4-17.1-14.5-18.5-19.4-18.5c-21.7,0-29,20-31.1,26.9
			C3159.3,2507.4,3196.8,2507.2,3208.8,2507.2"/>
		<path class="st2" d="M3274.9,2566.9c-6.2,1.5-11.1,1.7-13.6,1.7c-17.9,0-22.4-9.2-22.4-18.6c0-7.2,3.9-23.7,9.4-46.5l4.7-19.6
			h-3.8c-3.6,0-6.2,0-9.8,0.2l-0.9-1.3c1.3-4.3,2.2-7.7,3.4-12.4l1.3-0.9c4.9,0.2,8.1,0.2,13,0.2c2.3-8.7,3.4-14.9,5.1-23.6l1.3-1.3
			c7.3-1.5,12.4-2.8,19.6-4.7l0.9,1.1c-1.5,5.1-2.4,8.9-3.8,13.9l-3.6,14.5c7.7,0,13,0,20.5-0.4l0.9,1.3c-1.7,4.5-2.6,7.9-4,12.4
			l-1.3,1.1c-7.2-0.2-12.2-0.2-19.4-0.2l-10.2,42.6c-0.9,3.8-3.6,15.4-3.6,19.2c0,6,4.3,8.1,9.2,8.1c4.9,0,9.4-1.9,11.1-2.4l1,1
			c-1.5,4.9-2.6,8.3-4,13.2L3274.9,2566.9z"/>
		<path class="st2" d="M3389.7,2470.7c-22.6,36.5-75.5,125.3-82.7,141.3l-1.5,1.1h-8.5c-3.8,0-7.3,0-11.1,0.2l-0.6-1.3
			c5.5-8.3,24.1-37.1,28.6-45.4c-7.2-46.9-14.1-93.4-15.1-95.7l1.3-1.3c7.2,0,12.2-0.4,19.6-0.9l1.5,0.9c0.9,10.4,1.5,17.7,2.8,27.9
			l5.5,44.5l18.3-32.4c7.2-12.6,14.3-25.4,21.1-39l1.5-1.1c2.1,0.2,4.1,0.2,6.2,0.2c4.5,0,7.7-0.2,12.1-0.4L3389.7,2470.7z"/>
		<path class="st2" d="M2925.9,2396.3c-11.9,0-20.3,0.2-32.2,0.7l-1.1-1.3c0-7.5,0-13-0.9-34.7h-4.1c-3.8,0-12.2-0.2-19.4-0.2h-16
			c-10,20.9-12.8,26.4-16.4,34.3l-1.3,1.1h-7.5c-8.5,0-14.3,0.2-22.6,0.6l-0.7-2.1c19-33.5,52.4-96.6,69.9-130.4l1.5-0.9
			c15.1-0.2,25.8-0.4,40.9-0.8l0.9,1.1c3.2,47.1,6,83.8,10.4,131.5L2925.9,2396.3z M2862.9,2338.3c3.6,0.2,6.2,0.2,9.8,0.2h4.5
			c5.1,0,10.4,0,13.8-0.2c-0.9-37.1-1.5-53.7-1.5-53.7L2862.9,2338.3z"/>
		<path class="st2" d="M3027.6,2396.3c-10.9,0-18.6,0.4-29.4,0.8l-1-1.3l2.3-9.4c-4.9,5.3-17.1,12.2-29.4,12.2
			c-7.2,0-26.4-2.6-26.4-25.2c0-7.2,2.6-18.7,4.5-26.8l4.3-18.7c2.4-10.7,4.3-18.3,6-29.2l1.3-1.1c11.1-0.4,18.8-0.7,29.8-1.5
			l1.1,1.5c-7,29.9-14.5,57.6-14.5,66.3c0,4,1.3,10.9,11.1,10.9c7.3,0,13.6-4.7,16-6.6l7.9-36.5c2.3-10.7,4.5-21.9,6.6-33l1.5-1.1
			c11.1-0.4,19-0.7,30.3-1.5l0.9,1.5c-4.5,18.1-7.7,31.5-11.9,50.1l-4.1,18.8c-2.3,10.5-4,17.9-5.8,28.6L3027.6,2396.3z"/>
		<path class="st2" d="M3103.9,2396.3c-7.9,1.9-14.7,2.1-17.3,2.1c-21.5,0-28.3-9.2-28.3-22c0-7.2,2.1-16,6.2-32.6l6.4-26h-2.1
			c-4.1,0-7.2,0.2-11.1,0.4l-1.1-1.3c2.1-7,3.4-12.1,5.3-19l1.3-1.1h12.6c2.1-8.8,3.6-15.1,5.3-24.1l1.3-1.3
			c11.5-2.6,19.6-4.7,30.9-8.1l1.1,1.3c-1.5,5.3-2.4,10-8.3,32.8c7.2-0.2,12.2-0.2,19.4-0.6l0.8,1.5c-2.4,6.8-4.1,11.7-5.8,18.8
			l-1.7,1.1c-6.4-0.2-10.9-0.2-17.3-0.2l-7.9,33c-1.9,7.9-3.6,15.1-3.6,17.9c0,3.4,2.1,7.7,9.4,7.7c4.9,0,8.3-1.5,10.4-2.3l1.1,0.9
			c-2.2,7.3-3.6,12.4-5.6,19.6L3103.9,2396.3z"/>
		<path class="st2" d="M3182.6,2294.4c11.9,0,43.1,4.9,43.1,40.5c0,37.5-20.9,63.9-57.6,63.9c-37.9,0-45-23.5-45-41.1
			C3123.1,2345.3,3128.2,2294.4,3182.6,2294.4 M3168.7,2378.8c20,0,25.8-34.5,25.8-48c0-6.4-1.9-16.4-14.1-16.4
			c-22.6,0-25.8,41.8-25.8,47.7C3154.6,2374.8,3161.5,2378.8,3168.7,2378.8"/>
		<path class="st2" d="M3376.1,2396.3c-10.4,0-20.5,0.4-30.7,0.8l-1-1.3c2.5-11.1,14.7-58.4,14.7-67.2c0-2.6-0.9-10-9.6-10
			c-3.4,0-9,0.9-15.3,6.2c-0.7,12.2-11.1,53.1-13.9,70.4l-1.3,1.1c-10.2,0.2-20.3,0.4-30.3,0.8l-1-1.5c1.5-8.1,14.1-56.7,14.1-67.2
			c0-5.7-2.8-9.8-9.4-9.8c-3.2,0-8.5,1.1-13.9,6l-6.4,28.3c-3,13.6-6.4,29-8.8,42.4l-1.1,1.1c-10.4,0-20.7,0.4-30.9,0.8l-0.9-1.3
			c7-26.2,19.4-82.5,20.3-95.1l1.3-1.1c10.2-1.5,21.3-3.2,31.6-5.3l1.1,1.3l-2.5,11.1c8.5-7.2,19.6-12.2,30.7-12.2
			c6.8,0,15.4,2.3,20.2,13.6c13.4-10.7,25.2-13.4,32.8-13.4c6.4,0,26.6,1.5,26.6,24.1c0,3-0.8,8.3-3,18.6l-4,18.1
			c-2.8,13.2-5.5,26.6-8.1,39.7L3376.1,2396.3z"/>
		<path class="st2" d="M3490.2,2396.3c-10.6,0.2-17.9,0.2-28.4,0.8l-0.9-1.3l1.3-8.3c-4.7,4.9-14.3,10.9-27.1,10.9
			c-22.4,0-31.3-18.1-31.3-36.2c0-17.3,6.4-30.5,10.5-37.1c17.5-27.5,44.6-28.6,65-28.6h32l1.1,1.5c-14.1,59-17.7,74.4-20.9,97.2
			L3490.2,2396.3z M3477.2,2317.4c-1.7-0.2-2.8-0.2-5.8-0.2c-26,0-34.8,26.4-34.8,40.9c0,14.1,7,18.8,14.9,18.8
			c1.3,0,8.3-0.6,13.6-5.8C3469.9,2352.8,3472.9,2335.8,3477.2,2317.4"/>
		<path class="st2" d="M3565.8,2396.3c-7.9,1.9-14.7,2.1-17.3,2.1c-21.5,0-28.3-9.2-28.3-22c0-7.2,2.1-16,6.2-32.6l6.4-26h-2.1
			c-4.1,0-7.2,0.2-11.1,0.4l-1.1-1.3c2.1-7,3.4-12.1,5.3-19l1.3-1.1h12.6c2.1-8.8,3.6-15.1,5.3-24.1l1.3-1.3
			c11.5-2.6,19.6-4.7,30.9-8.1l1.1,1.3c-1.5,5.3-2.4,10-8.3,32.8c7.2-0.2,12.2-0.2,19.4-0.6l0.7,1.5c-2.4,6.8-4.1,11.7-5.8,18.8
			l-1.7,1.1c-6.4-0.2-10.9-0.2-17.3-0.2l-7.9,33c-1.9,7.9-3.6,15.1-3.6,17.9c0,3.4,2.1,7.7,9.4,7.7c4.9,0,8.3-1.5,10.4-2.3l1.1,0.9
			c-2.3,7.3-3.6,12.4-5.6,19.6L3565.8,2396.3z"/>
		<path class="st2" d="M3624.7,2348.5l-3,13.9c-2.3,10.9-4.2,21.9-6,33l-1.3,0.9c-10.9,0-21.9,0.2-32.6,0.8l-0.9-1.3
			c4.3-16.6,8.5-33.5,12.2-50.5l2.1-9.2c2.6-11.7,5.1-23.5,6.4-35.2l1.3-1.3c11.1-1.5,22.2-3.2,33.1-5.3l1.1,1.5
			C3632.8,2312.7,3628.5,2330.7,3624.7,2348.5 M3646.6,2251.3c-1.7,8.5-4,16.8-6,25.1l-1.5,1.5c-10.2,1.3-20.3,2.8-30.7,4.3
			l-1.1-1.5c1.9-8.3,3.8-16.8,5.5-25.2l1.7-1.3c10.2-1.3,21.8-3,31.1-4.1L3646.6,2251.3z"/>
		<path class="st2" d="M3701.4,2294.4c11.9,0,43.1,4.9,43.1,40.5c0,37.5-20.9,63.9-57.6,63.9c-37.9,0-45-23.5-45-41.1
			C3641.9,2345.3,3647,2294.4,3701.4,2294.4 M3687.5,2378.8c20,0,25.8-34.5,25.8-48c0-6.4-1.9-16.4-14.1-16.4
			c-22.6,0-25.8,41.8-25.8,47.7C3673.3,2374.8,3680.3,2378.8,3687.5,2378.8"/>
		<path class="st2" d="M3804.3,2295.3l-2.4,10.4c3.4-2.6,15.1-11.3,29.8-11.3c7.3,0,25.2,2.8,25.2,24.9c0,11.5-13.4,67.3-14.3,76.1
			l-1.3,0.9c-10.4,0.2-20.5,0.4-30.7,0.8l-0.8-1.3c4.3-20.2,13.8-56.3,13.8-66.5c0-6.2-3.8-10.7-10.4-10.7c-5.5,0-10.5,2.8-14.7,5.8
			c-5.3,23.5-12.4,57.1-14.9,70.8l-1.3,1.1c-10.4,0-20.7,0.4-31.1,0.8l-0.7-1.3c3.4-14.7,18.5-75.7,19.6-94.9l1.5-1.5
			c11.3-1.5,21.3-3.2,31.6-5.3L3804.3,2295.3z"/>
	</g>
</g>
<g id="Logo_Grises">
	<g id="Logo_6_">
		<path class="st3" d="M2738.4,1281.1c13.2,35.2,12,83.7,2.1,123c-9.5,37.5-25.3,70.2-42,99.3c-69.3,120.6-178.1,202-286.4,280.1
			c-7.2-9-11.6-19.3-17.9-31c-2.5-4.6-5.8-9.9-8.9-15.8c-2.5-4.5-7.7-11.9-7.9-16.3c-0.3-5.7,8-17.8,11.6-24.2
			c62.6-113.3,126-233,188.6-344.2c14.7-0.9,33-0.9,47.8,0c3,10.7,3.9,22.4,5.3,34.2c2.5,23.3,4.7,47.6,7.3,71.5
			c1.2,11.7,0.4,23.7,5.3,33.6c12.3-2.7,20.1-14.5,27.3-24.2c22.1-29.4,39.7-67,44.7-112.5c7.4-67.7-30.1-110.4-85.1-121.4
			c-32.8-6.6-66-2.1-94.1,4.7c-57.4,13.9-101.4,35.6-146.6,62.5c-16.4,9.7-32.3,19.3-48.3,30.5c-5,3.5-11.2,9.7-15.8,10
			c-4.5,0.3-10.8-3.6-16.3-5.8c-15.5-6-33.7-10.2-55.2-10.5c-29.4-0.4-52.4,7.6-74.1,12.6c3.2-7.5,11.2-11.1,17.3-15.8
			c43.1-32.5,92.5-61.9,145-85.7c61-27.5,127.2-49.7,210.2-53.6C2645.6,1177.9,2713.2,1214.6,2738.4,1281.1"/>
		<path class="st3" d="M2669.5,1781.9c1.8,19.7,5.3,39.6,3.7,57.3c-4.6,2.5-12.9,1.6-22.1,1.6c-7.7,0-18,1.1-22.1-1.6
			c-3-1.9-7-11.8-9.5-16.8c-17.8-35.4-33.5-67.5-52-102.5c-3.1-5.6-8.4-13.9-7.9-17.9c0.7-5.3,8.7-7.1,11-11
			c27.3-24,52.2-50.4,76.7-77.2c6.1-5.3,6.3,5.4,6.8,10C2659.6,1676.8,2664.7,1729.2,2669.5,1781.9"/>
		<path class="st3" d="M2407.9,1821.8c2.5,4.4,6,9.3,5.8,14.7c-3.9,5.5-14.5,3.7-22.6,3.7c-8.8,0-18.7,1.3-25.7-0.5
			c-4.5-1.1-11.2-7.4-16.3-11.6c-55.4-45.4-110.9-90.6-166.6-135.1c-20.6-16.4-41.5-31.7-60.4-49.4c-1-9.5-0.9-22.5,0-32.1
			c44.7-11.9,79.8-32.3,109.8-60.4c14.2-13.3,26.8-28.6,37.8-47.3c10.2-17.5,21.4-38.5,19.4-65.7c-2.9-39.3-33.8-58.9-75.7-58.9
			c-32.5,0-55.9,11.4-79.9,21c-7.4,3-16.1,9.3-25.2,5.3c2-5.3,7.5-8.8,12.1-12.1c30.5-22.2,72-44.9,120.9-47.8
			c80-4.7,125.6,45.4,132.9,114.6c8.6,81.4-31.5,135.7-81.4,163.4C2330.6,1690.4,2369.1,1755.7,2407.9,1821.8"/>
		<path class="st3" d="M2298.6,1819.7c4.9,4,9.6,7.3,12.6,12.1c-33.2,14.4-68.9,24.2-108.3,31c-40.1,6.9-85.7,9.1-127.2,1.6
			c-75.6-13.7-131.4-57.5-138.2-140.3c-3.6-42.8,6.2-84.2,19.4-117.7c13.4-34.2,30.8-62.8,50.4-88.8
			c39.4-52.4,87.1-99.8,169.2-109.3c23.8-2.7,45.1,2.6,59.4,13.7c3.2,2.4,11.6,8.5,11,12.6c-0.5,3.8-13.1,9.4-17.3,12.1
			c-40.8,26.5-80.8,58.2-114,89.9c-29.5,29.1-57.1,58.9-79.3,95.6c-20.4,33.6-43.1,89.6-21,134.5c27.8,56.8,113,70.1,196,57.8
			c17.9-2.6,37.1-5.9,55.2-10.5c6-1.5,12.8-4.6,17.3-4.2C2288.7,1810.2,2294.6,1816.5,2298.6,1819.7"/>
	</g>
	<g id="Tagline_2_">
		<g>
			<path class="st3" d="M2716,1789.1c4.7,0,9.2,1.2,13.6,3.6c4.4,2.4,7.9,5.8,10.4,10.3c2.5,4.5,3.7,9.1,3.7,13.9
				c0,4.8-1.2,9.4-3.7,13.8c-2.4,4.4-5.9,7.8-10.3,10.3c-4.4,2.4-9,3.7-13.8,3.7c-4.8,0-9.4-1.2-13.8-3.7
				c-4.4-2.4-7.8-5.9-10.3-10.3c-2.5-4.4-3.7-9-3.7-13.8c0-4.8,1.2-9.5,3.7-13.9c2.5-4.5,6-7.9,10.4-10.3
				C2706.8,1790.3,2711.4,1789.1,2716,1789.1 M2716,1793.7c-3.9,0-7.7,1-11.4,3c-3.7,2-6.6,4.9-8.7,8.6c-2.1,3.7-3.1,7.6-3.1,11.6
				c0,4,1,7.8,3.1,11.5c2,3.7,4.9,6.5,8.6,8.6s7.5,3.1,11.5,3.1c4,0,7.8-1,11.5-3.1c3.7-2,6.5-4.9,8.6-8.6c2-3.7,3.1-7.5,3.1-11.5
				c0-4-1-7.9-3.1-11.6c-2.1-3.7-5-6.6-8.7-8.6C2723.7,1794.7,2719.9,1793.7,2716,1793.7 M2703.9,1832.2v-29.9h10.3
				c3.5,0,6.1,0.3,7.6,0.8c1.6,0.6,2.8,1.5,3.8,2.9c0.9,1.4,1.4,2.8,1.4,4.4c0,2.2-0.8,4.1-2.3,5.7c-1.6,1.6-3.6,2.5-6.2,2.7
				c1.1,0.4,1.9,1,2.5,1.6c1.2,1.2,2.7,3.2,4.4,5.9l3.6,5.9h-5.9l-2.6-4.7c-2.1-3.7-3.8-6-5-7c-0.9-0.7-2.2-1-3.9-1h-2.8v12.7
				H2703.9z M2708.7,1815.4h5.8c2.8,0,4.7-0.4,5.7-1.3c1-0.8,1.5-1.9,1.5-3.3c0-0.9-0.2-1.7-0.7-2.4c-0.5-0.7-1.2-1.2-2-1.6
				c-0.9-0.3-2.5-0.5-4.8-0.5h-5.5V1815.4z"/>
			<path class="st3" d="M2941.5,1498.7c-10.9,0.2-21.9,0.6-32.8,1.3l-1.3-1.1c-7.2-21.7-11.3-34.7-17.3-51.6
				c-3.2,0.2-6.4,0.2-9.6,0.2c-4.1,16.6-7.5,34.1-10.5,50.9l-1.3,0.9c-8.3,0-31.6,0.6-31.6,0.6l-0.9-1.1
				c5.5-22.6,24.7-98.1,29.2-131.3l1.1-0.9c9.2,0,33.7-0.4,48.6-0.4c21.7,0,40.5,7,40.5,33c0,20.7-12.4,37.3-35.6,42.8
				c16.2,40.1,19.4,47.5,22.6,55.4L2941.5,1498.7z M2893.1,1425.8c15.6,0,29.4-7,29.4-23.5c0-12.2-9.8-13.8-19.6-13.8
				c-1.1,0-2.8,0.2-8.5,0.2c-0.9,3.8-2.1,7.5-8.9,37.1H2893.1z"/>
			<path class="st3" d="M3017.8,1397.3c11.9,0,43.1,4.9,43.1,40.5c0,37.5-20.9,63.9-57.6,63.9c-37.9,0-45-23.5-45-41.1
				C2958.3,1448.2,2963.3,1397.3,3017.8,1397.3 M3003.9,1481.7c20,0,25.8-34.5,25.8-48c0-6.4-1.9-16.4-14.1-16.4
				c-22.6,0-25.8,41.8-25.8,47.7C2989.7,1477.8,2996.7,1481.7,3003.9,1481.7"/>
			<path class="st3" d="M3061.3,1498.3c2.8-11.9,5.5-21.5,7.9-32.4l9-39.2c5.5-23.6,11.1-46.7,14.7-70.6l1.5-1.3
				c10.7-1.7,21.5-3.6,32.2-5.5l0.9,1.3c-1.5,6.8-3.2,13.2-4.9,19.8l-8.9,35.2c3.4-2.3,12.6-8.3,24.9-8.3c24.9,0,31.6,22,31.6,36.9
				c0,18.6-8.7,39.6-23.4,51.4c-16.6,13.4-36.2,13.8-56.1,13.8h-13.2c-5.1,0-10.2,0-15.3,0.2L3061.3,1498.3z M3101.4,1478.9
				c5.5,0,15.1-0.6,23.4-8.7c7.9-7.7,13.4-21.3,13.4-32.4c0-14.3-7.9-18.3-14.7-18.3c-7,0-11.9,3.8-13.9,5.1l-12.4,54.3H3101.4z"/>
			<path class="st3" d="M3237.8,1397.3c11.9,0,43.1,4.9,43.1,40.5c0,37.5-20.9,63.9-57.6,63.9c-37.9,0-45-23.5-45-41.1
				C3178.3,1448.2,3183.4,1397.3,3237.8,1397.3 M3223.9,1481.7c20,0,25.8-34.5,25.8-48c0-6.4-1.9-16.4-14.1-16.4
				c-22.6,0-25.8,41.8-25.8,47.7C3209.7,1477.8,3216.7,1481.7,3223.9,1481.7"/>
			<path class="st3" d="M3339.5,1499.2c-7.9,1.9-14.7,2.1-17.3,2.1c-21.5,0-28.3-9.2-28.3-22c0-7.2,2.1-16,6.2-32.6l6.4-26h-2.1
				c-4.1,0-7.2,0.2-11.1,0.4l-1.1-1.3c2.1-7,3.4-12.1,5.3-19l1.3-1.1h12.6c2.1-8.9,3.6-15.1,5.3-24.1l1.3-1.3
				c11.5-2.6,19.6-4.7,30.9-8.1l1.1,1.3c-1.5,5.3-2.4,10-8.3,32.8c7.2-0.2,12.2-0.2,19.4-0.6l0.8,1.5c-2.4,6.8-4.1,11.7-5.8,18.8
				l-1.7,1.1c-6.4-0.2-10.9-0.2-17.3-0.2l-7.9,33c-1.9,7.9-3.6,15.1-3.6,17.9c0,3.4,2.1,7.7,9.4,7.7c4.9,0,8.3-1.5,10.4-2.3l1.1,0.9
				c-2.3,7.3-3.6,12.4-5.6,19.6L3339.5,1499.2z"/>
			<path class="st3" d="M3398.5,1451.4l-3,13.9c-2.3,10.9-4.1,21.9-6,33l-1.3,0.9c-10.9,0-21.9,0.2-32.6,0.8l-0.9-1.3
				c4.3-16.6,8.5-33.5,12.2-50.5l2.1-9.2c2.6-11.7,5.1-23.6,6.4-35.2l1.3-1.3c11.1-1.5,22.2-3.2,33.2-5.3l1.1,1.5
				C3406.6,1415.6,3402.3,1433.7,3398.5,1451.4 M3420.3,1354.2c-1.7,8.5-4,16.8-6,25.1l-1.5,1.5c-10.2,1.3-20.3,2.8-30.7,4.3
				l-1.1-1.5c1.9-8.3,3.8-16.8,5.5-25.2l1.7-1.3c10.2-1.3,21.9-3,31.1-4.1L3420.3,1354.2z"/>
			<path class="st3" d="M3483.3,1497c-4.9,2.1-12.4,4.7-23.7,4.7c-28.1,0-44.8-17.5-44.8-43.9c0-26.4,14.1-44.3,27.9-52.6
				c13.2-7.9,27.9-7.9,31.5-7.9c8.5,0,20.2,1.9,28.4,7.7l0.4,1.5c-2.6,7.7-4.3,13.4-6.4,21.5l-1.9,0.4c-6.4-9-16.8-9-18.1-9
				c-20.9,0-29.4,21.5-29.4,36c0,12.6,6.4,23.9,21.5,23.9c10,0,15.6-4.1,20.2-7.5l1.7,0.9c-2.4,8.5-3.9,14.5-6,23L3483.3,1497z"/>
			<path class="st3" d="M3504.9,1470.1c8.1,9.2,17.9,12.2,26.4,12.2c10,0,16-4.5,16-10.9c0-5.3-3.2-7.5-12.8-12.4l-4.1-2.1
				c-6.8-3.4-19.6-9.6-19.6-25.6c0-16.4,11.7-33.9,43.1-33.9c15.6,0,25.1,4,32,7.5l1,1.7c-2.4,7.3-4,12.6-5.8,20.2l-1.7,0.4
				c-9-10.7-19.4-10.9-22.4-10.9c-9,0-14.9,4-14.9,9.6c0,4.3,3.6,7.2,11.5,10.9l4.3,2.1c7.3,3.6,21.7,10.4,21.7,28.1
				c0,17.9-13.8,35-45.6,35c-17.3,0-28.5-4.7-36-9.4l-0.6-1.7c2.4-7.3,3.8-12.6,5.8-20.2L3504.9,1470.1z"/>
			<path class="st3" d="M3755.1,1449c-6.6,8.5-14.7,16.2-23.6,24.7c5.1,8.1,10.2,16.2,15.4,24.3l-0.6,1.7h-10.9
				c-11.3,0-14.9,0-22.4,0.4l-1.5-1.1c-1.3-3-3-5.6-4.7-8.3c-11.5,7.5-22.2,11.3-35,11.3c-22,0-37.1-13.4-37.1-33
				c0-9.2,4-18.7,10.6-25.2c5.3-5.3,10.9-8.7,26.4-16c-5.5-10-7.3-16.8-7.3-25.4c0-19.4,15.1-32.6,37.7-32.6
				c20.9,0,34.5,10.5,34.5,26.9c0,15.1-10,23.9-29.6,35.2c4.3,7.9,8.7,15.6,13.4,23c14.5-15.4,15.5-16.8,21.1-27.1h1.9
				c3.6,6.8,7.9,13.2,12.1,19.8L3755.1,1449z M3682.6,1447.8c-12.4,6.6-16.4,11.1-16.4,18.5c0,7.2,5.3,12.4,13,12.4
				c5.3,0,10-1.9,17.1-6.8C3692,1463.8,3687.1,1455.9,3682.6,1447.8 M3702.9,1387.7c-5.8,0-10.7,4.9-10.7,10.9
				c0,4.3,1.1,7.5,5.3,15.8c11.7-7.3,15.3-11.1,15.3-17.3C3712.7,1391.7,3708.6,1387.7,3702.9,1387.7"/>
			<path class="st3" d="M2900.2,1325.9h-4.9c-5.6,0-9.8,0.2-15.4,0.4l-0.9-1.3c5.8-23.7,25.4-108.7,29.2-130.9l1.1-1.1h5.5
				c5.6,0,9.8,0,15.4-0.4l0.8,1.1c-6.2,24.9-21.1,87.2-29.2,131.3L2900.2,1325.9z"/>
			<path class="st3" d="M3010.4,1326.1h-39.2c-12.6,0-21.3,0-33.9,0.4l-2.6,0.2l-0.9-1.3c12.8-50.1,23.6-103.8,29.4-131.3l1.3-1.3
				h1.7c5.5,0,14.3,0.2,22.6,0.2h21.8c10.4,0,20.7-0.4,27.7-0.4l1.1,1.1c-1.7,5.1-2.6,8.7-4,13.9l-1.5,1.1
				c-11.5,0-27.3-0.6-43.3-0.6c-3.2,0-9.2,0.2-9.2,0.2l-9.2,41.1c37.7-0.2,43.3-0.6,51.4-0.6l0.8,1.3c-1.5,4.9-2.5,8.3-3.8,13.2
				l-1.7,1.3c-6.6-0.2-35.4-0.2-49.9-0.2c-3,13.2-6,26.6-10.2,45.6c7.9,0,51.4-0.8,56.5-0.8l1,0.9c-1.7,5.5-3,9.2-4.5,14.7
				L3010.4,1326.1z"/>
			<path class="st3" d="M3112.5,1326.1h-39.2c-12.6,0-21.3,0-33.9,0.4l-2.6,0.2l-0.9-1.3c12.8-50.1,23.6-103.8,29.4-131.3l1.3-1.3
				h1.7c5.5,0,14.3,0.2,22.6,0.2h21.8c10.4,0,20.7-0.4,27.7-0.4l1.1,1.1c-1.7,5.1-2.6,8.7-4,13.9l-1.5,1.1
				c-11.5,0-27.3-0.6-43.3-0.6c-3.2,0-9.2,0.2-9.2,0.2l-9.2,41.1c37.7-0.2,43.3-0.6,51.4-0.6l0.8,1.3c-1.5,4.9-2.5,8.3-3.8,13.2
				l-1.7,1.3c-6.6-0.2-35.4-0.2-49.9-0.2c-3,13.2-6,26.6-10.2,45.6c7.9,0,51.4-0.8,56.5-0.8l0.9,0.9c-1.7,5.5-3,9.2-4.5,14.7
				L3112.5,1326.1z"/>
			<path class="st3" d="M3214.6,1326.1h-39.2c-12.6,0-21.3,0-33.9,0.4l-2.6,0.2l-0.9-1.3c12.8-50.1,23.6-103.8,29.4-131.3l1.3-1.3
				h1.7c5.5,0,14.3,0.2,22.6,0.2h21.9c10.4,0,20.7-0.4,27.7-0.4l1.1,1.1c-1.7,5.1-2.6,8.7-4,13.9l-1.5,1.1
				c-11.5,0-27.3-0.6-43.3-0.6c-3.2,0-9.2,0.2-9.2,0.2l-9.2,41.1c37.7-0.2,43.3-0.6,51.4-0.6l0.8,1.3c-1.5,4.9-2.4,8.3-3.8,13.2
				l-1.7,1.3c-6.6-0.2-35.4-0.2-49.9-0.2c-3,13.2-6,26.6-10.2,45.6c7.9,0,51.4-0.8,56.5-0.8l0.9,0.9c-1.7,5.5-3,9.2-4.5,14.7
				L3214.6,1326.1z"/>
			<path class="st3" d="M2797,1815.1c2.1,4,13.4,14.5,31.5,14.5c22,0,31.5-12.6,31.5-24.1c0-11.9-7.3-17.1-21.3-24.3l-6.2-3.2
				c-12.2-6.2-24.3-13.4-24.3-32.4c0-18.3,13-39.6,48.2-39.6c17.5,0,28.8,5.3,36.4,10.4l0.6,1.5c-1.9,5.6-3.4,9.8-5.1,15.6l-1.7,0.4
				c-7.2-9.2-20.7-12.4-28.8-12.4c-19.6,0-28.3,10.9-28.3,22c0,10.2,6,14.3,21.3,22.2l5.5,2.8c12.2,6.4,25.4,15.4,25.4,34.5
				c0,18.8-14.5,42.4-50.9,42.4c-18.3,0-33.2-5.7-39.4-11.7l-0.6-1.7c1.9-6,2.8-10.4,4.3-16.6L2797,1815.1z"/>
			<path class="st3" d="M2951.1,1742.2c23.4,0,40.3,11.9,40.3,36.9c0,19.8-9,65.4-53.5,65.4c-11.9,0-39.2-2.8-39.2-37.7
				C2898.8,1776.3,2915.3,1742.2,2951.1,1742.2 M2938.3,1830.5c28.4,0,33.2-46,33.2-52.4c0-18.3-11.1-22.2-19.6-22.2
				c-26,0-33.2,38.6-33.2,52.2C2918.7,1820.1,2924.4,1830.5,2938.3,1830.5"/>
			<path class="st3" d="M3068.5,1839.2c-6.6,3.8-17.7,5.3-24.3,5.3c-24.3,0-41.1-18.3-41.1-42.2c0-15.6,6.8-39.9,27.5-52.6
				c10.9-6.6,22.4-7.5,27.5-7.5c13.2,0,23.5,3.2,29.2,7.5l0.6,1.3c-2.1,5.5-3.2,9.4-4.7,14.9l-1.9,0.6c-3-5.1-11.3-9.4-21.3-9.4
				c-23.5,0-36.4,24.9-36.4,43.7c0,22,17.1,28.4,26.2,28.4c3.2,0,13-0.4,23-9l1.5,0.8c-2.1,6.2-3.2,10.5-4.7,17L3068.5,1839.2z"/>
			<path class="st3" d="M3105,1842c-7.3,0-12.6,0.2-20,0.6l-0.9-1.1c6-21.9,19.4-84,20.3-94.2l1.3-1.3c7.7-0.9,13-1.7,20.5-3
				l0.9,1.3c-0.9-0.2-16.6,71.6-20.9,96.8L3105,1842z M3132,1717.9c-7.3,0.9-12.4,1.5-19.8,2.6l-1.1-1.5c1.5-6.4,2.6-10.9,4-17.3
				l1.7-1.3c7.3-0.9,12.4-1.5,19.6-2.6l1.5,1.3c-1.7,6.2-2.8,10.9-4.3,17.3L3132,1717.9z"/>
			<path class="st3" d="M3211.3,1836.9c-6.4,3.8-16.2,7.5-30.7,7.5c-32.2,0-43.7-19.2-43.7-40.9c0-33,20.2-61.4,52.7-61.4
				c22.2,0,38.1,10.2,38.1,35.2c0,7.7-1.7,14.3-2.3,17.1l-1.3,0.9c-9.8,0-27.7-0.2-44.1-0.2c-8.5,0-14.7,0-23.2,0.4
				c-0.2,1.1-0.6,4.5-0.6,8.1c0,24.7,21.5,25.2,28.3,25.2c15.6,0,23.7-6,31.1-11.3l1.5,0.9c-2.1,6.2-3.4,10.5-4.9,17L3211.3,1836.9z
				 M3208.8,1782.1c0.8-4.3,0.9-6.2,0.9-8.3c-0.4-17.1-14.5-18.5-19.4-18.5c-21.7,0-29,20-31.1,26.9
				C3159.3,1782.3,3196.8,1782.1,3208.8,1782.1"/>
			<path class="st3" d="M3274.9,1841.8c-6.2,1.5-11.1,1.7-13.6,1.7c-17.9,0-22.4-9.2-22.4-18.6c0-7.2,3.9-23.7,9.4-46.5l4.7-19.6
				h-3.8c-3.6,0-6.2,0-9.8,0.2l-0.9-1.3c1.3-4.3,2.2-7.7,3.4-12.4l1.3-0.9c4.9,0.2,8.1,0.2,13,0.2c2.3-8.7,3.4-14.9,5.1-23.6
				l1.3-1.3c7.3-1.5,12.4-2.8,19.6-4.7l0.9,1.1c-1.5,5.1-2.4,8.9-3.8,13.9l-3.6,14.5c7.7,0,13,0,20.5-0.4l0.9,1.3
				c-1.7,4.5-2.6,7.9-4,12.4l-1.3,1.1c-7.2-0.2-12.2-0.2-19.4-0.2l-10.2,42.6c-0.9,3.8-3.6,15.4-3.6,19.2c0,6,4.3,8.1,9.2,8.1
				c4.9,0,9.4-1.9,11.1-2.4l1,1c-1.5,4.9-2.6,8.3-4,13.2L3274.9,1841.8z"/>
			<path class="st3" d="M3389.7,1745.6c-22.6,36.5-75.5,125.3-82.7,141.3l-1.5,1.1h-8.5c-3.8,0-7.3,0-11.1,0.2l-0.6-1.3
				c5.5-8.3,24.1-37.1,28.6-45.4c-7.2-46.9-14.1-93.4-15.1-95.7l1.3-1.3c7.2,0,12.2-0.4,19.6-0.9l1.5,0.9
				c0.9,10.4,1.5,17.7,2.8,27.9l5.5,44.5l18.3-32.4c7.2-12.6,14.3-25.4,21.1-39l1.5-1.1c2.1,0.2,4.1,0.2,6.2,0.2
				c4.5,0,7.7-0.2,12.1-0.4L3389.7,1745.6z"/>
			<path class="st3" d="M2925.9,1671.2c-11.9,0-20.3,0.2-32.2,0.7l-1.1-1.3c0-7.5,0-13-0.9-34.7h-4.1c-3.8,0-12.2-0.2-19.4-0.2h-16
				c-10,20.9-12.8,26.4-16.4,34.3l-1.3,1.1h-7.5c-8.5,0-14.3,0.2-22.6,0.6l-0.7-2.1c19-33.5,52.4-96.6,69.9-130.4l1.5-0.9
				c15.1-0.2,25.8-0.4,40.9-0.8l0.9,1.1c3.2,47.1,6,83.8,10.4,131.5L2925.9,1671.2z M2862.9,1613.2c3.6,0.2,6.2,0.2,9.8,0.2h4.5
				c5.1,0,10.4,0,13.8-0.2c-0.9-37.1-1.5-53.7-1.5-53.7L2862.9,1613.2z"/>
			<path class="st3" d="M3027.6,1671.2c-10.9,0-18.6,0.4-29.4,0.8l-1-1.3l2.3-9.4c-4.9,5.3-17.1,12.2-29.4,12.2
				c-7.2,0-26.4-2.6-26.4-25.2c0-7.2,2.6-18.7,4.5-26.8l4.3-18.7c2.4-10.7,4.3-18.3,6-29.2l1.3-1.1c11.1-0.4,18.8-0.7,29.8-1.5
				l1.1,1.5c-7,29.9-14.5,57.6-14.5,66.3c0,4,1.3,10.9,11.1,10.9c7.3,0,13.6-4.7,16-6.6l7.9-36.5c2.3-10.7,4.5-21.9,6.6-33l1.5-1.1
				c11.1-0.4,19-0.7,30.3-1.5l0.9,1.5c-4.5,18.1-7.7,31.5-11.9,50.1l-4.1,18.8c-2.3,10.5-4,17.9-5.8,28.6L3027.6,1671.2z"/>
			<path class="st3" d="M3103.9,1671.2c-7.9,1.9-14.7,2.1-17.3,2.1c-21.5,0-28.3-9.2-28.3-22c0-7.2,2.1-16,6.2-32.6l6.4-26h-2.1
				c-4.1,0-7.2,0.2-11.1,0.4l-1.1-1.3c2.1-7,3.4-12.1,5.3-19l1.3-1.1h12.6c2.1-8.8,3.6-15.1,5.3-24.1l1.3-1.3
				c11.5-2.6,19.6-4.7,30.9-8.1l1.1,1.3c-1.5,5.3-2.4,10-8.3,32.8c7.2-0.2,12.2-0.2,19.4-0.6l0.8,1.5c-2.4,6.8-4.1,11.7-5.8,18.8
				l-1.7,1.1c-6.4-0.2-10.9-0.2-17.3-0.2l-7.9,33c-1.9,7.9-3.6,15.1-3.6,17.9c0,3.4,2.1,7.7,9.4,7.7c4.9,0,8.3-1.5,10.4-2.3l1.1,0.9
				c-2.2,7.3-3.6,12.4-5.6,19.6L3103.9,1671.2z"/>
			<path class="st3" d="M3182.6,1569.3c11.9,0,43.1,4.9,43.1,40.5c0,37.5-20.9,63.9-57.6,63.9c-37.9,0-45-23.5-45-41.1
				C3123.1,1620.2,3128.2,1569.3,3182.6,1569.3 M3168.7,1653.7c20,0,25.8-34.5,25.8-48c0-6.4-1.9-16.4-14.1-16.4
				c-22.6,0-25.8,41.8-25.8,47.7C3154.6,1649.7,3161.5,1653.7,3168.7,1653.7"/>
			<path class="st3" d="M3376.1,1671.2c-10.4,0-20.5,0.4-30.7,0.8l-1-1.3c2.5-11.1,14.7-58.4,14.7-67.2c0-2.6-0.9-10-9.6-10
				c-3.4,0-9,0.9-15.3,6.2c-0.7,12.2-11.1,53.1-13.9,70.4l-1.3,1.1c-10.2,0.2-20.3,0.4-30.3,0.8l-1-1.5c1.5-8.1,14.1-56.7,14.1-67.2
				c0-5.7-2.8-9.8-9.4-9.8c-3.2,0-8.5,1.1-13.9,6l-6.4,28.3c-3,13.6-6.4,29-8.8,42.4l-1.1,1.1c-10.4,0-20.7,0.4-30.9,0.8l-0.9-1.3
				c7-26.2,19.4-82.5,20.3-95.1l1.3-1.1c10.2-1.5,21.3-3.2,31.6-5.3l1.1,1.3l-2.5,11.1c8.5-7.2,19.6-12.2,30.7-12.2
				c6.8,0,15.4,2.3,20.2,13.6c13.4-10.7,25.2-13.4,32.8-13.4c6.4,0,26.6,1.5,26.6,24.1c0,3-0.8,8.3-3,18.6l-4,18.1
				c-2.8,13.2-5.5,26.6-8.1,39.7L3376.1,1671.2z"/>
			<path class="st3" d="M3490.2,1671.2c-10.6,0.2-17.9,0.2-28.4,0.8l-0.9-1.3l1.3-8.3c-4.7,4.9-14.3,10.9-27.1,10.9
				c-22.4,0-31.3-18.1-31.3-36.2c0-17.3,6.4-30.5,10.5-37.1c17.5-27.5,44.6-28.6,65-28.6h32l1.1,1.5c-14.1,59-17.7,74.4-20.9,97.2
				L3490.2,1671.2z M3477.2,1592.3c-1.7-0.2-2.8-0.2-5.8-0.2c-26,0-34.8,26.4-34.8,40.9c0,14.1,7,18.8,14.9,18.8
				c1.3,0,8.3-0.6,13.6-5.8C3469.9,1627.7,3472.9,1610.7,3477.2,1592.3"/>
			<path class="st3" d="M3565.8,1671.2c-7.9,1.9-14.7,2.1-17.3,2.1c-21.5,0-28.3-9.2-28.3-22c0-7.2,2.1-16,6.2-32.6l6.4-26h-2.1
				c-4.1,0-7.2,0.2-11.1,0.4l-1.1-1.3c2.1-7,3.4-12.1,5.3-19l1.3-1.1h12.6c2.1-8.8,3.6-15.1,5.3-24.1l1.3-1.3
				c11.5-2.6,19.6-4.7,30.9-8.1l1.1,1.3c-1.5,5.3-2.4,10-8.3,32.8c7.2-0.2,12.2-0.2,19.4-0.6l0.7,1.5c-2.4,6.8-4.1,11.7-5.8,18.8
				l-1.7,1.1c-6.4-0.2-10.9-0.2-17.3-0.2l-7.9,33c-1.9,7.9-3.6,15.1-3.6,17.9c0,3.4,2.1,7.7,9.4,7.7c4.9,0,8.3-1.5,10.4-2.3l1.1,0.9
				c-2.3,7.3-3.6,12.4-5.6,19.6L3565.8,1671.2z"/>
			<path class="st3" d="M3624.7,1623.3l-3,13.9c-2.3,10.9-4.2,21.9-6,33l-1.3,0.9c-10.9,0-21.9,0.2-32.6,0.8l-0.9-1.3
				c4.3-16.6,8.5-33.5,12.2-50.5l2.1-9.2c2.6-11.7,5.1-23.5,6.4-35.2l1.3-1.3c11.1-1.5,22.2-3.2,33.1-5.3l1.1,1.5
				C3632.8,1587.6,3628.5,1605.6,3624.7,1623.3 M3646.6,1526.2c-1.7,8.5-4,16.8-6,25.1l-1.5,1.5c-10.2,1.3-20.3,2.8-30.7,4.3
				l-1.1-1.5c1.9-8.3,3.8-16.8,5.5-25.2l1.7-1.3c10.2-1.3,21.8-3,31.1-4.1L3646.6,1526.2z"/>
			<path class="st3" d="M3701.4,1569.3c11.9,0,43.1,4.9,43.1,40.5c0,37.5-20.9,63.9-57.6,63.9c-37.9,0-45-23.5-45-41.1
				C3641.9,1620.2,3647,1569.3,3701.4,1569.3 M3687.5,1653.7c20,0,25.8-34.5,25.8-48c0-6.4-1.9-16.4-14.1-16.4
				c-22.6,0-25.8,41.8-25.8,47.7C3673.3,1649.7,3680.3,1653.7,3687.5,1653.7"/>
			<path class="st3" d="M3804.3,1570.2l-2.4,10.4c3.4-2.6,15.1-11.3,29.8-11.3c7.3,0,25.2,2.8,25.2,24.9c0,11.5-13.4,67.3-14.3,76.1
				l-1.3,0.9c-10.4,0.2-20.5,0.4-30.7,0.8l-0.8-1.3c4.3-20.2,13.8-56.3,13.8-66.5c0-6.2-3.8-10.7-10.4-10.7
				c-5.5,0-10.5,2.8-14.7,5.8c-5.3,23.5-12.4,57.1-14.9,70.8l-1.3,1.1c-10.4,0-20.7,0.4-31.1,0.8l-0.7-1.3
				c3.4-14.7,18.5-75.7,19.6-94.9l1.5-1.5c11.3-1.5,21.3-3.2,31.6-5.3L3804.3,1570.2z"/>
		</g>
	</g>
</g>
<g id="Logo_7_">
	<g id="Logo_8_">
		<path class="st4" d="M798.4,1281.1c13.2,35.2,12,83.7,2.1,123c-9.5,37.5-25.3,70.2-42,99.3c-69.3,120.6-178.1,202-286.4,280.1
			c-7.2-9-11.6-19.3-17.9-31c-2.5-4.6-5.8-9.9-8.9-15.8c-2.5-4.5-7.7-11.9-7.9-16.3c-0.3-5.7,8-17.8,11.6-24.2
			c62.6-113.3,126-233,188.6-344.2c14.7-0.9,33-0.9,47.8,0c3,10.7,3.9,22.4,5.3,34.2c2.5,23.3,4.7,47.6,7.3,71.5
			c1.2,11.7,0.4,23.7,5.3,33.6c12.3-2.7,20.1-14.5,27.3-24.2c22.1-29.4,39.7-67,44.7-112.5c7.4-67.7-30.1-110.4-85.1-121.4
			c-32.8-6.6-66-2.1-94.1,4.7c-57.4,13.9-101.4,35.6-146.6,62.5c-16.4,9.7-32.3,19.3-48.3,30.5c-5,3.5-11.2,9.7-15.8,10
			c-4.5,0.3-10.8-3.6-16.3-5.8c-15.5-6-33.7-10.2-55.2-10.5c-29.4-0.4-52.4,7.6-74.1,12.6c3.2-7.5,11.2-11.1,17.3-15.8
			c43.1-32.5,92.5-61.9,145-85.7c61-27.5,127.2-49.7,210.2-53.6C705.6,1177.9,773.2,1214.6,798.4,1281.1"/>
		<path class="st4" d="M729.5,1781.9c1.8,19.7,5.3,39.6,3.7,57.3c-4.6,2.5-12.9,1.6-22.1,1.6c-7.7,0-18,1.1-22.1-1.6
			c-3-1.9-7-11.8-9.5-16.8c-17.8-35.4-33.5-67.5-52-102.5c-3.1-5.6-8.4-13.9-7.9-17.9c0.7-5.3,8.7-7.1,11-11
			c27.3-24,52.2-50.4,76.7-77.2c6.1-5.3,6.3,5.4,6.8,10C719.6,1676.8,724.7,1729.2,729.5,1781.9"/>
		<path class="st5" d="M467.9,1821.8c2.5,4.4,6,9.3,5.8,14.7c-3.9,5.5-14.5,3.7-22.6,3.7c-8.8,0-18.7,1.3-25.7-0.5
			c-4.5-1.1-11.2-7.4-16.3-11.6c-55.4-45.4-110.9-90.6-166.6-135.1c-20.6-16.4-41.5-31.7-60.4-49.4c-1-9.5-0.9-22.5,0-32.1
			c44.7-11.9,79.8-32.3,109.8-60.4c14.2-13.3,26.8-28.6,37.8-47.3c10.2-17.5,21.4-38.5,19.4-65.7c-2.9-39.3-33.8-58.9-75.7-58.9
			c-32.5,0-55.9,11.4-79.9,21c-7.4,3-16.1,9.3-25.2,5.3c2-5.3,7.5-8.8,12.1-12.1c30.5-22.2,72-44.9,120.9-47.8
			c80-4.7,125.6,45.4,132.9,114.6c8.6,81.4-31.5,135.7-81.4,163.4C390.6,1690.4,429.1,1755.7,467.9,1821.8"/>
		<path class="st4" d="M358.6,1819.7c4.9,4,9.6,7.3,12.6,12.1c-33.2,14.4-68.9,24.2-108.3,31c-40.1,6.9-85.7,9.1-127.2,1.6
			c-75.6-13.7-131.4-57.5-138.2-140.3c-3.6-42.8,6.2-84.2,19.4-117.7c13.4-34.2,30.8-62.8,50.4-88.8
			c39.4-52.4,87.1-99.8,169.2-109.3c23.8-2.7,45.1,2.6,59.4,13.7c3.2,2.4,11.6,8.5,11,12.6c-0.5,3.8-13.1,9.4-17.3,12.1
			c-40.8,26.5-80.8,58.2-114,89.9c-29.5,29.1-57.1,58.9-79.3,95.6c-20.4,33.6-43.1,89.6-21,134.5c27.8,56.8,113,70.1,196,57.8
			c17.9-2.6,37.1-5.9,55.2-10.5c6-1.5,12.8-4.6,17.3-4.2C348.7,1810.2,354.6,1816.5,358.6,1819.7"/>
	</g>
	<g id="Tagline_3_">
		<path class="st4" d="M776,1789.1c4.7,0,9.2,1.2,13.6,3.6c4.4,2.4,7.9,5.8,10.4,10.3c2.5,4.5,3.7,9.1,3.7,13.9
			c0,4.8-1.2,9.4-3.7,13.8c-2.4,4.4-5.9,7.8-10.3,10.3c-4.4,2.4-9,3.7-13.8,3.7c-4.8,0-9.4-1.2-13.8-3.7c-4.4-2.4-7.8-5.9-10.3-10.3
			c-2.5-4.4-3.7-9-3.7-13.8c0-4.8,1.2-9.5,3.7-13.9c2.5-4.5,6-7.9,10.4-10.3C766.8,1790.3,771.4,1789.1,776,1789.1 M776,1793.7
			c-3.9,0-7.7,1-11.4,3c-3.7,2-6.6,4.9-8.7,8.6c-2.1,3.7-3.1,7.6-3.1,11.6c0,4,1,7.8,3.1,11.5c2,3.7,4.9,6.5,8.6,8.6
			c3.7,2,7.5,3.1,11.5,3.1c4,0,7.8-1,11.5-3.1c3.7-2,6.5-4.9,8.6-8.6c2-3.7,3.1-7.5,3.1-11.5c0-4-1-7.9-3.1-11.6
			c-2.1-3.7-5-6.6-8.7-8.6C783.7,1794.7,779.9,1793.7,776,1793.7 M763.9,1832.2v-29.9h10.3c3.5,0,6.1,0.3,7.6,0.8
			c1.6,0.6,2.8,1.5,3.8,2.9c0.9,1.4,1.4,2.8,1.4,4.4c0,2.2-0.8,4.1-2.3,5.7c-1.6,1.6-3.6,2.5-6.2,2.7c1.1,0.4,1.9,1,2.5,1.6
			c1.2,1.2,2.7,3.2,4.4,5.9l3.6,5.9h-5.9l-2.6-4.7c-2.1-3.7-3.8-6-5-7c-0.9-0.7-2.2-1-3.9-1h-2.8v12.7H763.9z M768.7,1815.4h5.8
			c2.8,0,4.7-0.4,5.7-1.3c1-0.8,1.5-1.9,1.5-3.3c0-0.9-0.2-1.7-0.7-2.4c-0.5-0.7-1.2-1.2-2-1.6c-0.9-0.3-2.5-0.5-4.8-0.5h-5.5
			V1815.4z"/>
		<path class="st5" d="M1001.5,1498.7c-10.9,0.2-21.9,0.6-32.8,1.3l-1.3-1.1c-7.2-21.7-11.3-34.7-17.3-51.6
			c-3.2,0.2-6.4,0.2-9.6,0.2c-4.1,16.6-7.5,34.1-10.5,50.9l-1.3,0.9c-8.3,0-31.6,0.6-31.6,0.6l-0.9-1.1
			c5.5-22.6,24.7-98.1,29.2-131.3l1.1-0.9c9.2,0,33.7-0.4,48.6-0.4c21.7,0,40.5,7,40.5,33c0,20.7-12.4,37.3-35.6,42.8
			c16.2,40.1,19.4,47.5,22.6,55.4L1001.5,1498.7z M953.1,1425.8c15.6,0,29.4-7,29.4-23.5c0-12.2-9.8-13.8-19.6-13.8
			c-1.1,0-2.8,0.2-8.5,0.2c-0.9,3.8-2.1,7.5-8.9,37.1H953.1z"/>
		<path class="st5" d="M1077.8,1397.3c11.9,0,43.1,4.9,43.1,40.5c0,37.5-20.9,63.9-57.6,63.9c-37.9,0-45-23.5-45-41.1
			C1018.3,1448.2,1023.3,1397.3,1077.8,1397.3 M1063.9,1481.7c20,0,25.8-34.5,25.8-48c0-6.4-1.9-16.4-14.1-16.4
			c-22.6,0-25.8,41.8-25.8,47.7C1049.7,1477.8,1056.7,1481.7,1063.9,1481.7"/>
		<path class="st5" d="M1121.3,1498.3c2.8-11.9,5.5-21.5,7.9-32.4l9-39.2c5.5-23.6,11.1-46.7,14.7-70.6l1.5-1.3
			c10.7-1.7,21.5-3.6,32.2-5.5l0.9,1.3c-1.5,6.8-3.2,13.2-4.9,19.8l-8.9,35.2c3.4-2.3,12.6-8.3,24.9-8.3c24.9,0,31.6,22,31.6,36.9
			c0,18.6-8.7,39.6-23.4,51.4c-16.6,13.4-36.2,13.8-56.1,13.8h-13.2c-5.1,0-10.2,0-15.3,0.2L1121.3,1498.3z M1161.4,1478.9
			c5.5,0,15.1-0.6,23.4-8.7c7.9-7.7,13.4-21.3,13.4-32.4c0-14.3-7.9-18.3-14.7-18.3c-7,0-11.9,3.8-13.9,5.1l-12.4,54.3H1161.4z"/>
		<path class="st5" d="M1297.8,1397.3c11.9,0,43.1,4.9,43.1,40.5c0,37.5-20.9,63.9-57.6,63.9c-37.9,0-45-23.5-45-41.1
			C1238.3,1448.2,1243.4,1397.3,1297.8,1397.3 M1283.9,1481.7c20,0,25.8-34.5,25.8-48c0-6.4-1.9-16.4-14.1-16.4
			c-22.6,0-25.8,41.8-25.8,47.7C1269.7,1477.8,1276.7,1481.7,1283.9,1481.7"/>
		<path class="st5" d="M1399.5,1499.2c-7.9,1.9-14.7,2.1-17.3,2.1c-21.5,0-28.3-9.2-28.3-22c0-7.2,2.1-16,6.2-32.6l6.4-26h-2.1
			c-4.1,0-7.2,0.2-11.1,0.4l-1.1-1.3c2.1-7,3.4-12.1,5.3-19l1.3-1.1h12.6c2.1-8.9,3.6-15.1,5.3-24.1l1.3-1.3
			c11.5-2.6,19.6-4.7,30.9-8.1l1.1,1.3c-1.5,5.3-2.4,10-8.3,32.8c7.2-0.2,12.2-0.2,19.4-0.6l0.8,1.5c-2.4,6.8-4.1,11.7-5.8,18.8
			l-1.7,1.1c-6.4-0.2-10.9-0.2-17.3-0.2l-7.9,33c-1.9,7.9-3.6,15.1-3.6,17.9c0,3.4,2.1,7.7,9.4,7.7c4.9,0,8.3-1.5,10.4-2.3l1.1,0.9
			c-2.3,7.3-3.6,12.4-5.6,19.6L1399.5,1499.2z"/>
		<path class="st5" d="M1458.5,1451.4l-3,13.9c-2.3,10.9-4.1,21.9-6,33l-1.3,0.9c-10.9,0-21.9,0.2-32.6,0.8l-0.9-1.3
			c4.3-16.6,8.5-33.5,12.2-50.5l2.1-9.2c2.6-11.7,5.1-23.6,6.4-35.2l1.3-1.3c11.1-1.5,22.2-3.2,33.2-5.3l1.1,1.5
			C1466.6,1415.6,1462.3,1433.7,1458.5,1451.4 M1480.3,1354.2c-1.7,8.5-4,16.8-6,25.1l-1.5,1.5c-10.2,1.3-20.3,2.8-30.7,4.3
			l-1.1-1.5c1.9-8.3,3.8-16.8,5.5-25.2l1.7-1.3c10.2-1.3,21.9-3,31.1-4.1L1480.3,1354.2z"/>
		<path class="st5" d="M1543.3,1497c-4.9,2.1-12.4,4.7-23.7,4.7c-28.1,0-44.8-17.5-44.8-43.9c0-26.4,14.1-44.3,27.9-52.6
			c13.2-7.9,27.9-7.9,31.5-7.9c8.5,0,20.2,1.9,28.4,7.7l0.4,1.5c-2.6,7.7-4.3,13.4-6.4,21.5l-1.9,0.4c-6.4-9-16.8-9-18.1-9
			c-20.9,0-29.4,21.5-29.4,36c0,12.6,6.4,23.9,21.5,23.9c10,0,15.6-4.1,20.2-7.5l1.7,0.9c-2.4,8.5-3.9,14.5-6,23L1543.3,1497z"/>
		<path class="st5" d="M1564.9,1470.1c8.1,9.2,17.9,12.2,26.4,12.2c10,0,16-4.5,16-10.9c0-5.3-3.2-7.5-12.8-12.4l-4.1-2.1
			c-6.8-3.4-19.6-9.6-19.6-25.6c0-16.4,11.7-33.9,43.1-33.9c15.6,0,25.1,4,32,7.5l1,1.7c-2.4,7.3-4,12.6-5.8,20.2l-1.7,0.4
			c-9-10.7-19.4-10.9-22.4-10.9c-9,0-14.9,4-14.9,9.6c0,4.3,3.6,7.2,11.5,10.9l4.3,2.1c7.3,3.6,21.7,10.4,21.7,28.1
			c0,17.9-13.8,35-45.6,35c-17.3,0-28.5-4.7-36-9.4l-0.6-1.7c2.4-7.3,3.8-12.6,5.8-20.2L1564.9,1470.1z"/>
		<path class="st5" d="M1815.1,1449c-6.6,8.5-14.7,16.2-23.6,24.7c5.1,8.1,10.2,16.2,15.4,24.3l-0.6,1.7h-10.9
			c-11.3,0-14.9,0-22.4,0.4l-1.5-1.1c-1.3-3-3-5.6-4.7-8.3c-11.5,7.5-22.2,11.3-35,11.3c-22,0-37.1-13.4-37.1-33
			c0-9.2,4-18.7,10.6-25.2c5.3-5.3,10.9-8.7,26.4-16c-5.5-10-7.3-16.8-7.3-25.4c0-19.4,15.1-32.6,37.7-32.6
			c20.9,0,34.5,10.5,34.5,26.9c0,15.1-10,23.9-29.6,35.2c4.3,7.9,8.7,15.6,13.4,23c14.5-15.4,15.5-16.8,21.1-27.1h1.9
			c3.6,6.8,7.9,13.2,12.1,19.8L1815.1,1449z M1742.6,1447.8c-12.4,6.6-16.4,11.1-16.4,18.5c0,7.2,5.3,12.4,13,12.4
			c5.3,0,10-1.9,17.1-6.8C1752,1463.8,1747.1,1455.9,1742.6,1447.8 M1762.9,1387.7c-5.8,0-10.7,4.9-10.7,10.9
			c0,4.3,1.1,7.5,5.3,15.8c11.7-7.3,15.3-11.1,15.3-17.3C1772.7,1391.7,1768.6,1387.7,1762.9,1387.7"/>
		<path class="st5" d="M960.2,1325.9h-4.9c-5.6,0-9.8,0.2-15.4,0.4l-0.9-1.3c5.8-23.7,25.4-108.7,29.2-130.9l1.1-1.1h5.5
			c5.6,0,9.8,0,15.4-0.4l0.8,1.1c-6.2,24.9-21.1,87.2-29.2,131.3L960.2,1325.9z"/>
		<path class="st5" d="M1070.4,1326.1h-39.2c-12.6,0-21.3,0-33.9,0.4l-2.6,0.2l-0.9-1.3c12.8-50.1,23.6-103.8,29.4-131.3l1.3-1.3
			h1.7c5.5,0,14.3,0.2,22.6,0.2h21.8c10.4,0,20.7-0.4,27.7-0.4l1.1,1.1c-1.7,5.1-2.6,8.7-4,13.9l-1.5,1.1c-11.5,0-27.3-0.6-43.3-0.6
			c-3.2,0-9.2,0.2-9.2,0.2l-9.2,41.1c37.7-0.2,43.3-0.6,51.4-0.6l0.8,1.3c-1.5,4.9-2.5,8.3-3.8,13.2l-1.7,1.3
			c-6.6-0.2-35.4-0.2-49.9-0.2c-3,13.2-6,26.6-10.2,45.6c7.9,0,51.4-0.8,56.5-0.8l1,0.9c-1.7,5.5-3,9.2-4.5,14.7L1070.4,1326.1z"/>
		<path class="st5" d="M1172.5,1326.1h-39.2c-12.6,0-21.3,0-33.9,0.4l-2.6,0.2l-0.9-1.3c12.8-50.1,23.6-103.8,29.4-131.3l1.3-1.3
			h1.7c5.5,0,14.3,0.2,22.6,0.2h21.8c10.4,0,20.7-0.4,27.7-0.4l1.1,1.1c-1.7,5.1-2.6,8.7-4,13.9l-1.5,1.1c-11.5,0-27.3-0.6-43.3-0.6
			c-3.2,0-9.2,0.2-9.2,0.2l-9.2,41.1c37.7-0.2,43.3-0.6,51.4-0.6l0.8,1.3c-1.5,4.9-2.5,8.3-3.8,13.2l-1.7,1.3
			c-6.6-0.2-35.4-0.2-49.9-0.2c-3,13.2-6,26.6-10.2,45.6c7.9,0,51.4-0.8,56.5-0.8l0.9,0.9c-1.7,5.5-3,9.2-4.5,14.7L1172.5,1326.1z"
			/>
		<path class="st5" d="M1274.6,1326.1h-39.2c-12.6,0-21.3,0-33.9,0.4l-2.6,0.2l-0.9-1.3c12.8-50.1,23.6-103.8,29.4-131.3l1.3-1.3
			h1.7c5.5,0,14.3,0.2,22.6,0.2h21.9c10.4,0,20.7-0.4,27.7-0.4l1.1,1.1c-1.7,5.1-2.6,8.7-4,13.9l-1.5,1.1c-11.5,0-27.3-0.6-43.3-0.6
			c-3.2,0-9.2,0.2-9.2,0.2l-9.2,41.1c37.7-0.2,43.3-0.6,51.4-0.6l0.8,1.3c-1.5,4.9-2.4,8.3-3.8,13.2l-1.7,1.3
			c-6.6-0.2-35.4-0.2-49.9-0.2c-3,13.2-6,26.6-10.2,45.6c7.9,0,51.4-0.8,56.5-0.8l0.9,0.9c-1.7,5.5-3,9.2-4.5,14.7L1274.6,1326.1z"
			/>
		<path class="st5" d="M857,1815.1c2.1,4,13.4,14.5,31.5,14.5c22,0,31.5-12.6,31.5-24.1c0-11.9-7.3-17.1-21.3-24.3l-6.2-3.2
			c-12.2-6.2-24.3-13.4-24.3-32.4c0-18.3,13-39.6,48.2-39.6c17.5,0,28.8,5.3,36.4,10.4l0.6,1.5c-1.9,5.6-3.4,9.8-5.1,15.6l-1.7,0.4
			c-7.2-9.2-20.7-12.4-28.8-12.4c-19.6,0-28.3,10.9-28.3,22c0,10.2,6,14.3,21.3,22.2l5.5,2.8c12.2,6.4,25.4,15.4,25.4,34.5
			c0,18.8-14.5,42.4-50.9,42.4c-18.3,0-33.2-5.7-39.4-11.7l-0.6-1.7c1.9-6,2.8-10.4,4.3-16.6L857,1815.1z"/>
		<path class="st5" d="M1011.1,1742.2c23.4,0,40.3,11.9,40.3,36.9c0,19.8-9,65.4-53.5,65.4c-11.9,0-39.2-2.8-39.2-37.7
			C958.8,1776.3,975.3,1742.2,1011.1,1742.2 M998.3,1830.5c28.4,0,33.2-46,33.2-52.4c0-18.3-11.1-22.2-19.6-22.2
			c-26,0-33.2,38.6-33.2,52.2C978.7,1820.1,984.4,1830.5,998.3,1830.5"/>
		<path class="st5" d="M1128.5,1839.2c-6.6,3.8-17.7,5.3-24.3,5.3c-24.3,0-41.1-18.3-41.1-42.2c0-15.6,6.8-39.9,27.5-52.6
			c10.9-6.6,22.4-7.5,27.5-7.5c13.2,0,23.5,3.2,29.2,7.5l0.6,1.3c-2.1,5.5-3.2,9.4-4.7,14.9l-1.9,0.6c-3-5.1-11.3-9.4-21.3-9.4
			c-23.5,0-36.4,24.9-36.4,43.7c0,22,17.1,28.4,26.2,28.4c3.2,0,13-0.4,23-9l1.5,0.8c-2.1,6.2-3.2,10.5-4.7,17L1128.5,1839.2z"/>
		<path class="st5" d="M1165,1842c-7.3,0-12.6,0.2-20,0.6l-0.9-1.1c6-21.9,19.4-84,20.3-94.2l1.3-1.3c7.7-0.9,13-1.7,20.5-3l0.9,1.3
			c-0.9-0.2-16.6,71.6-20.9,96.8L1165,1842z M1192,1717.9c-7.3,0.9-12.4,1.5-19.8,2.6l-1.1-1.5c1.5-6.4,2.6-10.9,4-17.3l1.7-1.3
			c7.3-0.9,12.4-1.5,19.6-2.6l1.5,1.3c-1.7,6.2-2.8,10.9-4.3,17.3L1192,1717.9z"/>
		<path class="st5" d="M1271.3,1836.9c-6.4,3.8-16.2,7.5-30.7,7.5c-32.2,0-43.7-19.2-43.7-40.9c0-33,20.2-61.4,52.7-61.4
			c22.2,0,38.1,10.2,38.1,35.2c0,7.7-1.7,14.3-2.3,17.1l-1.3,0.9c-9.8,0-27.7-0.2-44.1-0.2c-8.5,0-14.7,0-23.2,0.4
			c-0.2,1.1-0.6,4.5-0.6,8.1c0,24.7,21.5,25.2,28.3,25.2c15.6,0,23.7-6,31.1-11.3l1.5,0.9c-2.1,6.2-3.4,10.5-4.9,17L1271.3,1836.9z
			 M1268.8,1782.1c0.8-4.3,0.9-6.2,0.9-8.3c-0.4-17.1-14.5-18.5-19.4-18.5c-21.7,0-29,20-31.1,26.9
			C1219.3,1782.3,1256.8,1782.1,1268.8,1782.1"/>
		<path class="st5" d="M1334.9,1841.8c-6.2,1.5-11.1,1.7-13.6,1.7c-17.9,0-22.4-9.2-22.4-18.6c0-7.2,3.9-23.7,9.4-46.5l4.7-19.6
			h-3.8c-3.6,0-6.2,0-9.8,0.2l-0.9-1.3c1.3-4.3,2.2-7.7,3.4-12.4l1.3-0.9c4.9,0.2,8.1,0.2,13,0.2c2.3-8.7,3.4-14.9,5.1-23.6l1.3-1.3
			c7.3-1.5,12.4-2.8,19.6-4.7l0.9,1.1c-1.5,5.1-2.4,8.9-3.8,13.9l-3.6,14.5c7.7,0,13,0,20.5-0.4l0.9,1.3c-1.7,4.5-2.6,7.9-4,12.4
			l-1.3,1.1c-7.2-0.2-12.2-0.2-19.4-0.2l-10.2,42.6c-0.9,3.8-3.6,15.4-3.6,19.2c0,6,4.3,8.1,9.2,8.1c4.9,0,9.4-1.9,11.1-2.4l1,1
			c-1.5,4.9-2.6,8.3-4,13.2L1334.9,1841.8z"/>
		<path class="st5" d="M1449.7,1745.6c-22.6,36.5-75.5,125.3-82.7,141.3l-1.5,1.1h-8.5c-3.8,0-7.3,0-11.1,0.2l-0.6-1.3
			c5.5-8.3,24.1-37.1,28.6-45.4c-7.2-46.9-14.1-93.4-15.1-95.7l1.3-1.3c7.2,0,12.2-0.4,19.6-0.9l1.5,0.9c0.9,10.4,1.5,17.7,2.8,27.9
			l5.5,44.5l18.3-32.4c7.2-12.6,14.3-25.4,21.1-39l1.5-1.1c2.1,0.2,4.1,0.2,6.2,0.2c4.5,0,7.7-0.2,12.1-0.4L1449.7,1745.6z"/>
		<path class="st5" d="M985.9,1671.2c-11.9,0-20.3,0.2-32.2,0.7l-1.1-1.3c0-7.5,0-13-0.9-34.7h-4.1c-3.8,0-12.2-0.2-19.4-0.2h-16
			c-10,20.9-12.8,26.4-16.4,34.3l-1.3,1.1h-7.5c-8.5,0-14.3,0.2-22.6,0.6l-0.7-2.1c19-33.5,52.4-96.6,69.9-130.4l1.5-0.9
			c15.1-0.2,25.8-0.4,40.9-0.8l0.9,1.1c3.2,47.1,6,83.8,10.4,131.5L985.9,1671.2z M922.9,1613.2c3.6,0.2,6.2,0.2,9.8,0.2h4.5
			c5.1,0,10.4,0,13.8-0.2c-0.9-37.1-1.5-53.7-1.5-53.7L922.9,1613.2z"/>
		<path class="st5" d="M1087.6,1671.2c-10.9,0-18.6,0.4-29.4,0.8l-1-1.3l2.3-9.4c-4.9,5.3-17.1,12.2-29.4,12.2
			c-7.2,0-26.4-2.6-26.4-25.2c0-7.2,2.6-18.7,4.5-26.8l4.3-18.7c2.4-10.7,4.3-18.3,6-29.2l1.3-1.1c11.1-0.4,18.8-0.7,29.8-1.5
			l1.1,1.5c-7,29.9-14.5,57.6-14.5,66.3c0,4,1.3,10.9,11.1,10.9c7.3,0,13.6-4.7,16-6.6l7.9-36.5c2.3-10.7,4.5-21.9,6.6-33l1.5-1.1
			c11.1-0.4,19-0.7,30.3-1.5l0.9,1.5c-4.5,18.1-7.7,31.5-11.9,50.1l-4.1,18.8c-2.3,10.5-4,17.9-5.8,28.6L1087.6,1671.2z"/>
		<path class="st5" d="M1163.9,1671.2c-7.9,1.9-14.7,2.1-17.3,2.1c-21.5,0-28.3-9.2-28.3-22c0-7.2,2.1-16,6.2-32.6l6.4-26h-2.1
			c-4.1,0-7.2,0.2-11.1,0.4l-1.1-1.3c2.1-7,3.4-12.1,5.3-19l1.3-1.1h12.6c2.1-8.8,3.6-15.1,5.3-24.1l1.3-1.3
			c11.5-2.6,19.6-4.7,30.9-8.1l1.1,1.3c-1.5,5.3-2.4,10-8.3,32.8c7.2-0.2,12.2-0.2,19.4-0.6l0.8,1.5c-2.4,6.8-4.1,11.7-5.8,18.8
			l-1.7,1.1c-6.4-0.2-10.9-0.2-17.3-0.2l-7.9,33c-1.9,7.9-3.6,15.1-3.6,17.9c0,3.4,2.1,7.7,9.4,7.7c4.9,0,8.3-1.5,10.4-2.3l1.1,0.9
			c-2.2,7.3-3.6,12.4-5.6,19.6L1163.9,1671.2z"/>
		<path class="st5" d="M1242.6,1569.3c11.9,0,43.1,4.9,43.1,40.5c0,37.5-20.9,63.9-57.6,63.9c-37.9,0-45-23.5-45-41.1
			C1183.1,1620.2,1188.2,1569.3,1242.6,1569.3 M1228.7,1653.7c20,0,25.8-34.5,25.8-48c0-6.4-1.9-16.4-14.1-16.4
			c-22.6,0-25.8,41.8-25.8,47.7C1214.6,1649.7,1221.5,1653.7,1228.7,1653.7"/>
		<path class="st5" d="M1436.1,1671.2c-10.4,0-20.5,0.4-30.7,0.8l-1-1.3c2.5-11.1,14.7-58.4,14.7-67.2c0-2.6-0.9-10-9.6-10
			c-3.4,0-9,0.9-15.3,6.2c-0.7,12.2-11.1,53.1-13.9,70.4l-1.3,1.1c-10.2,0.2-20.3,0.4-30.3,0.8l-1-1.5c1.5-8.1,14.1-56.7,14.1-67.2
			c0-5.7-2.8-9.8-9.4-9.8c-3.2,0-8.5,1.1-13.9,6l-6.4,28.3c-3,13.6-6.4,29-8.8,42.4l-1.1,1.1c-10.4,0-20.7,0.4-30.9,0.8l-0.9-1.3
			c7-26.2,19.4-82.5,20.3-95.1l1.3-1.1c10.2-1.5,21.3-3.2,31.6-5.3l1.1,1.3l-2.5,11.1c8.5-7.2,19.6-12.2,30.7-12.2
			c6.8,0,15.4,2.3,20.2,13.6c13.4-10.7,25.2-13.4,32.8-13.4c6.4,0,26.6,1.5,26.6,24.1c0,3-0.8,8.3-3,18.6l-4,18.1
			c-2.8,13.2-5.5,26.6-8.1,39.7L1436.1,1671.2z"/>
		<path class="st5" d="M1550.2,1671.2c-10.6,0.2-17.9,0.2-28.4,0.8l-0.9-1.3l1.3-8.3c-4.7,4.9-14.3,10.9-27.1,10.9
			c-22.4,0-31.3-18.1-31.3-36.2c0-17.3,6.4-30.5,10.5-37.1c17.5-27.5,44.6-28.6,65-28.6h32l1.1,1.5c-14.1,59-17.7,74.4-20.9,97.2
			L1550.2,1671.2z M1537.2,1592.3c-1.7-0.2-2.8-0.2-5.8-0.2c-26,0-34.8,26.4-34.8,40.9c0,14.1,7,18.8,14.9,18.8
			c1.3,0,8.3-0.6,13.6-5.8C1529.9,1627.7,1532.9,1610.7,1537.2,1592.3"/>
		<path class="st5" d="M1625.8,1671.2c-7.9,1.9-14.7,2.1-17.3,2.1c-21.5,0-28.3-9.2-28.3-22c0-7.2,2.1-16,6.2-32.6l6.4-26h-2.1
			c-4.1,0-7.2,0.2-11.1,0.4l-1.1-1.3c2.1-7,3.4-12.1,5.3-19l1.3-1.1h12.6c2.1-8.8,3.6-15.1,5.3-24.1l1.3-1.3
			c11.5-2.6,19.6-4.7,30.9-8.1l1.1,1.3c-1.5,5.3-2.4,10-8.3,32.8c7.2-0.2,12.2-0.2,19.4-0.6l0.7,1.5c-2.4,6.8-4.1,11.7-5.8,18.8
			l-1.7,1.1c-6.4-0.2-10.9-0.2-17.3-0.2l-7.9,33c-1.9,7.9-3.6,15.1-3.6,17.9c0,3.4,2.1,7.7,9.4,7.7c4.9,0,8.3-1.5,10.4-2.3l1.1,0.9
			c-2.3,7.3-3.6,12.4-5.6,19.6L1625.8,1671.2z"/>
		<path class="st5" d="M1684.7,1623.3l-3,13.9c-2.3,10.9-4.2,21.9-6,33l-1.3,0.9c-10.9,0-21.9,0.2-32.6,0.8l-0.9-1.3
			c4.3-16.6,8.5-33.5,12.2-50.5l2.1-9.2c2.6-11.7,5.1-23.5,6.4-35.2l1.3-1.3c11.1-1.5,22.2-3.2,33.1-5.3l1.1,1.5
			C1692.8,1587.6,1688.5,1605.6,1684.7,1623.3 M1706.6,1526.2c-1.7,8.5-4,16.8-6,25.1l-1.5,1.5c-10.2,1.3-20.3,2.8-30.7,4.3
			l-1.1-1.5c1.9-8.3,3.8-16.8,5.5-25.2l1.7-1.3c10.2-1.3,21.8-3,31.1-4.1L1706.6,1526.2z"/>
		<path class="st5" d="M1761.4,1569.3c11.9,0,43.1,4.9,43.1,40.5c0,37.5-20.9,63.9-57.6,63.9c-37.9,0-45-23.5-45-41.1
			C1701.9,1620.2,1707,1569.3,1761.4,1569.3 M1747.5,1653.7c20,0,25.8-34.5,25.8-48c0-6.4-1.9-16.4-14.1-16.4
			c-22.6,0-25.8,41.8-25.8,47.7C1733.3,1649.7,1740.3,1653.7,1747.5,1653.7"/>
		<path class="st5" d="M1864.3,1570.2l-2.4,10.4c3.4-2.6,15.1-11.3,29.8-11.3c7.3,0,25.2,2.8,25.2,24.9c0,11.5-13.4,67.3-14.3,76.1
			l-1.3,0.9c-10.4,0.2-20.5,0.4-30.7,0.8l-0.8-1.3c4.3-20.2,13.8-56.3,13.8-66.5c0-6.2-3.8-10.7-10.4-10.7c-5.5,0-10.5,2.8-14.7,5.8
			c-5.3,23.5-12.4,57.1-14.9,70.8l-1.3,1.1c-10.4,0-20.7,0.4-31.1,0.8l-0.7-1.3c3.4-14.7,18.5-75.7,19.6-94.9l1.5-1.5
			c11.3-1.5,21.3-3.2,31.6-5.3L1864.3,1570.2z"/>
	</g>
</g>
<g id="Logo_2_" class="st6">
	<path class="st7" d="M1535.6,1177.7c19.3,51.5,17.5,122.4,3.1,179.7c-14,54.8-37,102.6-61.4,145.2
		c-101.3,176.3-260.3,295.2-418.7,409.4c-10.5-13.2-17-28.2-26.1-45.3c-3.6-6.7-8.5-14.5-13.1-23c-3.6-6.5-11.3-17.4-11.5-23.8
		c-0.4-8.3,11.7-26,16.9-35.3c91.5-165.7,184.2-340.6,275.8-503.2c21.5-1.3,48.3-1.3,69.9,0c4.4,15.6,5.8,32.8,7.7,49.9
		c3.7,34.1,6.9,69.7,10.7,104.5c1.8,17,0.5,34.7,7.7,49.2c17.9-4,29.3-21.3,39.9-35.3c32.3-43,58-97.9,65.3-164.4
		c10.8-99-44-161.4-124.4-177.4c-48-9.6-96.5-3.1-137.5,6.9c-83.9,20.4-148.3,52.1-214.3,91.4c-23.9,14.2-47.2,28.2-70.7,44.6
		c-7.3,5.1-16.4,14.2-23.1,14.6c-6.5,0.4-15.8-5.3-23.8-8.5c-22.7-8.8-49.3-14.9-80.7-15.4c-43-0.6-76.6,11.1-108.3,18.4
		c4.6-11,16.4-16.3,25.3-23c63-47.5,135.2-90.5,212-125.2c89.1-40.2,185.9-72.7,307.3-78.4C1400,1026.9,1498.9,1080.6,1535.6,1177.7
		"/>
	<path class="st7" d="M1435,1909.8c2.6,28.8,7.8,57.9,5.4,83.7c-6.7,3.6-18.8,2.3-32.3,2.3c-11.3,0-26.2,1.7-32.3-2.3
		c-4.4-2.8-10.2-17.3-13.8-24.6c-26-51.7-48.9-98.7-76-149.8c-4.5-8.2-12.3-20.4-11.5-26.1c1-7.8,12.7-10.4,16.1-16.1
		c39.9-35.1,76.3-73.7,112.2-112.9c9-7.8,9.2,7.9,10,14.6C1420.4,1756.2,1427.9,1832.8,1435,1909.8"/>
	<path class="st8" d="M1052.4,1968.2c3.7,6.4,8.8,13.6,8.5,21.5c-5.6,8.1-21.1,5.4-33,5.4c-12.8,0-27.4,1.9-37.6-0.8
		c-6.5-1.7-16.4-10.8-23.8-16.9c-81-66.3-162.1-132.5-243.5-197.4c-30.1-23.9-60.7-46.3-88.3-72.2c-1.4-14-1.3-32.9,0-46.9
		c65.3-17.4,116.6-47.2,160.5-88.3c20.7-19.5,39.2-41.7,55.3-69.1c15-25.6,31.2-56.3,28.4-96c-4.2-57.5-49.4-86-110.6-86
		c-47.5,0-81.7,16.6-116.8,30.7c-10.9,4.4-23.6,13.6-36.9,7.7c2.9-7.7,11-12.8,17.7-17.7c44.6-32.5,105.2-65.7,176.7-69.9
		c116.9-6.9,183.6,66.4,194.4,167.5c12.5,118.9-46.1,198.3-119.1,238.9C939.5,1776.1,995.7,1871.5,1052.4,1968.2"/>
	<path class="st7" d="M892.6,1965.1c7.2,5.9,14,10.6,18.4,17.7c-48.5,21-100.8,35.3-158.3,45.3c-58.6,10.1-125.2,13.3-185.9,2.3
		c-110.5-20-192-84.1-202-205.1c-5.2-62.6,9.1-123.2,28.4-172.1c19.6-49.9,45.1-91.8,73.7-129.8c57.6-76.6,127.3-146,247.4-159.8
		c34.8-4,65.9,3.8,86.8,20c4.6,3.6,16.9,12.4,16.1,18.4c-0.8,5.5-19.2,13.7-25.3,17.7c-59.7,38.8-118.2,85.1-166.7,131.4
		c-43.1,42.5-83.5,86-116,139.8c-29.8,49.2-63,131-30.7,196.7c40.7,83.1,165.1,102.4,286.5,84.5c26.1-3.8,54.2-8.7,80.7-15.4
		c8.8-2.2,18.7-6.8,25.3-6.2C878.3,1951.3,886.9,1960.4,892.6,1965.1"/>
	<path class="st9" d="M1060.9,1989.7c-5.6,8.1-21.1,5.4-33,5.4c-12.8,0-27.4,1.9-37.6-0.8c-6.5-1.7-16.4-10.8-23.8-16.9
		c-81-66.3-162.1-132.5-243.5-197.4c-30.1-23.9-60.7-46.3-88.3-72.2c-1.4-13.9-1.3-32.9,0-46.9c6.3-1.7,12.4-3.5,18.5-5.4
		c42.2-13.3,78.4-32.3,110.5-56.4c11-8.2,21.5-17.1,31.6-26.6c14-13.2,27-27.6,38.9-44.1h3.5l17.8-17.8l17.8-17.9v-38.1
		c4.4-14.3,6.8-29.9,5.6-47.3c-3.1-42.4-28.5-69-66.1-80.1c-13.4-4-28.4-5.9-44.5-5.9c-47.5,0-81.7,16.6-116.8,30.7
		c-5.9,2.4-12.4,6.2-19.2,8.2c-5.7,1.7-11.6,2.2-17.7-0.5c1.6-4.2,4.8-7.7,8.4-10.7l-13.5-16.2l31.6-31.6l31.6-31.6l34.3,28.4
		c17.5-7.8,36.2-14.5,56-19.1l4.6-48.6H857l4.2,44.5c22.1,3.8,41.7,11.1,58.8,21.3l32-26.5l63.2,63.2l-30.5,36.8
		c7.5,16.3,12.9,34.1,16.3,53.1l53.5,5l0,44.7l0,44.7l-54.4,5.1c-3.7,18.5-9.4,35.7-16.7,51.5l31.8,38.3l-31.6,31.6l-31.6,31.6
		l-28.5-23.6c-12.3,10.4-25.5,19.3-39.2,26.9c55.3,97.6,111.5,192.9,168.2,289.6C1056.1,1974.6,1061.2,1981.7,1060.9,1989.7z"/>
	<path class="st8" d="M873.2,1454.7v38.1l-17.8,17.9l-17.8,17.8H834c5.7-7.9,11.2-16.2,16.4-25.1
		C858.8,1489,867.6,1473,873.2,1454.7z"/>
	<g class="st10">
		<path class="st11" d="M812.3,1327.3h0.4c-13.4-4-28.4-5.9-44.5-5.9c-47.5,0-81.7,16.6-116.8,30.7c-5.9,2.4-12.4,6.2-19.2,8.2
			l15.8,19.1c-7.1,13.3-12.7,27.6-16.5,42.6l-61.4,5.8v89.4l64.2,6c4.2,13.5,9.9,26.4,16.9,38.3l-41.8,50.5l43.5,43.5
			c42.2-13.3,78.4-32.3,110.5-56.4c-19.1-7.1-36.3-18.2-50.4-32.4c-25.4-25.4-41.1-60.4-41.1-99.2c0-38.7,15.7-73.8,41.1-99.2
			S773.6,1327.3,812.3,1327.3z"/>
		<polygon class="st11" points="873.2,1442.3 873.2,1492.8 855.4,1510.7 837.5,1528.5 787.1,1528.5 769.2,1510.7 751.4,1492.8 
			751.4,1442.3 769.2,1424.5 787.1,1406.6 837.5,1406.6 855.4,1424.5 		"/>
	</g>
</g>
<g id="Logo_5_">
	<path class="st4" d="M1067.1,214.6c17.6,46.9,16,111.5,2.8,163.7c-12.7,49.9-33.7,93.4-56,132.2c-92.2,160.5-237,268.8-381.2,372.8
		c-9.6-12-15.5-25.7-23.8-41.3c-3.3-6.1-7.7-13.2-11.9-21c-3.3-6-10.3-15.9-10.5-21.7c-0.4-7.6,10.6-23.7,15.4-32.2
		C685.2,616.4,769.6,457.1,853,309c19.6-1.2,44-1.2,63.7,0c4,14.2,5.2,29.9,7,45.5c3.4,31,6.3,63.4,9.8,95.1
		c1.6,15.5,0.5,31.6,7,44.8c16.3-3.6,26.7-19.4,36.4-32.2c29.4-39.2,52.8-89.2,59.5-149.7c9.8-90.1-40.1-147-113.3-161.6
		c-43.7-8.7-87.9-2.8-125.2,6.3c-76.4,18.5-135,47.5-195.2,83.2c-21.8,12.9-43,25.6-64.4,40.6c-6.7,4.7-14.9,12.9-21,13.3
		c-6,0.3-14.3-4.8-21.7-7.7c-20.6-8-44.9-13.5-73.4-14c-39.2-0.6-69.7,10.1-98.6,16.8c4.2-10,14.9-14.8,23.1-21
		c57.4-43.3,123.1-82.4,193.1-114c81.1-36.6,169.3-66.2,279.8-71.4C943.6,77.3,1033.6,126.1,1067.1,214.6"/>
	<path class="st4" d="M975.4,881.3c2.3,26.2,7.1,52.7,4.9,76.2c-6.1,3.3-17.1,2.1-29.4,2.1c-10.3,0-23.9,1.5-29.4-2.1
		c-4-2.6-9.3-15.7-12.6-22.4c-23.7-47.1-44.5-89.9-69.2-136.4c-4.1-7.5-11.2-18.5-10.5-23.8c0.9-7.1,11.5-9.4,14.7-14.7
		c36.4-31.9,69.5-67.1,102.1-102.8c8.2-7.1,8.4,7.2,9.1,13.3C962.1,741.4,969,811.2,975.4,881.3"/>
	<path class="st5" d="M627.1,934.4c3.4,5.8,8,12.4,7.7,19.6c-5.1,7.3-19.2,4.9-30.1,4.9c-11.7,0-24.9,1.7-34.3-0.7
		c-5.9-1.5-14.9-9.8-21.7-15.4C474.9,882.4,401.1,822.1,327,763c-27.4-21.8-55.3-42.2-80.4-65.8c-1.3-12.7-1.2-30,0-42.7
		c59.5-15.9,106.2-43,146.2-80.5c18.9-17.7,35.7-38,50.4-63c13.6-23.3,28.4-51.3,25.9-87.4c-3.8-52.4-45-78.3-100.7-78.3
		c-43.3,0-74.4,15.2-106.3,28c-9.9,4-21.5,12.4-33.6,7c2.7-7,10-11.7,16.1-16.1c40.6-29.6,95.8-59.8,160.9-63.7
		c106.4-6.3,167.2,60.5,177,152.5c11.4,108.3-42,180.6-108.4,217.5C524.2,759.5,575.4,846.4,627.1,934.4"/>
	<path class="st4" d="M481.6,931.6c6.5,5.4,12.7,9.7,16.8,16.1c-44.2,19.1-91.8,32.2-144.1,41.3c-53.4,9.2-114,12.1-169.3,2.1
		C84.4,972.9,10.1,914.5,1,804.3c-4.8-57,8.3-112.2,25.9-156.7c17.8-45.5,41-83.6,67.2-118.2c52.5-69.7,115.9-132.9,225.2-145.5
		c31.7-3.6,60,3.5,79,18.2c4.2,3.3,15.4,11.3,14.7,16.8c-0.7,5-17.5,12.5-23.1,16.1c-54.3,35.3-107.6,77.5-151.8,119.6
		c-39.3,38.7-76,78.3-105.6,127.3c-27.2,44.8-57.4,119.3-28,179.1c37.1,75.7,150.4,93.3,260.9,76.9c23.8-3.5,49.3-7.9,73.5-14
		c8-2,17-6.2,23.1-5.6C468.5,919,476.3,927.3,481.6,931.6"/>
</g>
<g>
</g>
<g>
</g>
<g>
</g>
<g>
</g>
<g>
</g>
<g>
</g>
</svg>
